<svg width="570" height="503" viewBox="0 0 570 503" fill="none" xmlns="http://www.w3.org/2000/svg">
<path d="M568.896 454.499H1.10354C0.810862 454.499 0.530172 454.383 0.323218 454.176C0.116265 453.969 0 453.688 0 453.396C0 453.103 0.116265 452.822 0.323218 452.615C0.530172 452.408 0.810862 452.292 1.10354 452.292H568.896C569.189 452.292 569.47 452.408 569.677 452.615C569.884 452.822 570 453.103 570 453.396C570 453.688 569.884 453.969 569.677 454.176C569.47 454.383 569.189 454.499 568.896 454.499Z" fill="#D1D3D4"/>
<path d="M521.358 260.939H394.605V478.557H521.358V260.939Z" fill="white"/>
<path d="M521.357 479.66H394.605C394.312 479.66 394.031 479.544 393.824 479.337C393.617 479.13 393.501 478.85 393.501 478.557V260.939C393.501 260.646 393.617 260.366 393.824 260.159C394.031 259.952 394.312 259.835 394.605 259.835H521.357C521.65 259.835 521.93 259.952 522.137 260.159C522.344 260.366 522.461 260.646 522.461 260.939V478.513C522.466 478.661 522.442 478.81 522.39 478.949C522.337 479.088 522.256 479.215 522.153 479.322C522.05 479.429 521.927 479.514 521.79 479.572C521.653 479.631 521.506 479.661 521.357 479.66ZM395.708 477.453H520.253V262.043H395.708V477.453Z" fill="#191B1D"/>
<path d="M172.153 260.939H45.4004V478.557H172.153V260.939Z" fill="white"/>
<path d="M172.152 479.66H45.3994C45.1068 479.66 44.8261 479.544 44.6191 479.337C44.4122 479.13 44.2959 478.85 44.2959 478.557V260.939C44.2959 260.646 44.4122 260.366 44.6191 260.159C44.8261 259.952 45.1068 259.835 45.3994 259.835H172.152C172.445 259.835 172.725 259.952 172.932 260.159C173.139 260.366 173.255 260.646 173.255 260.939V478.513C173.261 478.661 173.237 478.81 173.184 478.949C173.132 479.088 173.051 479.215 172.948 479.322C172.845 479.429 172.722 479.514 172.585 479.572C172.448 479.631 172.301 479.661 172.152 479.66ZM46.503 477.453H171.048V262.043H46.503V477.453Z" fill="#191B1D"/>
<path d="M418.199 197.838L443.293 248.225H375.426L418.199 197.838Z" fill="#191B1D"/>
<path d="M443.292 249.33H375.49C375.278 249.329 375.07 249.269 374.89 249.156C374.71 249.043 374.566 248.881 374.475 248.689C374.388 248.498 374.358 248.286 374.389 248.078C374.42 247.871 374.512 247.676 374.651 247.52L417.425 197.132C417.539 196.99 417.689 196.88 417.86 196.814C418.03 196.748 418.215 196.728 418.396 196.757C418.577 196.777 418.751 196.842 418.901 196.946C419.052 197.05 419.174 197.19 419.256 197.353L444.329 247.74C444.422 247.901 444.471 248.084 444.471 248.27C444.471 248.456 444.422 248.639 444.329 248.8C444.225 248.978 444.071 249.122 443.888 249.216C443.704 249.31 443.497 249.349 443.292 249.33ZM377.808 247.122H441.504L417.954 199.847L377.808 247.122Z" fill="#191B1D"/>
<path d="M225.452 248.226H387.032L445.652 162.327H293.121L225.452 248.226Z" fill="#191B1D"/>
<path d="M387.032 249.329H225.408C225.201 249.328 224.999 249.269 224.824 249.158C224.649 249.048 224.509 248.89 224.419 248.704C224.329 248.518 224.294 248.31 224.316 248.104C224.339 247.898 224.419 247.703 224.547 247.541L292.216 161.642C292.318 161.51 292.448 161.404 292.598 161.331C292.747 161.259 292.911 161.221 293.077 161.222H445.608C445.808 161.228 446.003 161.287 446.173 161.391C446.343 161.496 446.483 161.643 446.579 161.818C446.687 161.99 446.744 162.189 446.744 162.392C446.744 162.595 446.687 162.794 446.579 162.966L387.959 248.843C387.859 248.996 387.721 249.121 387.558 249.206C387.396 249.29 387.215 249.333 387.032 249.329ZM227.725 247.122H386.525L443.644 163.429H293.651L227.725 247.122Z" fill="#191B1D"/>
<path d="M297.975 170.67L249.685 233.241H369.595L414.973 170.67H297.975Z" fill="white"/>
<path d="M369.599 234.343H249.688C249.481 234.344 249.278 234.286 249.103 234.177C248.927 234.067 248.786 233.911 248.695 233.725C248.592 233.548 248.538 233.346 248.538 233.14C248.538 232.935 248.592 232.733 248.695 232.556L297.008 169.985C297.109 169.854 297.24 169.748 297.389 169.675C297.538 169.602 297.702 169.565 297.869 169.566H414.844C415.045 169.562 415.244 169.616 415.416 169.722C415.588 169.827 415.726 169.98 415.815 170.162C415.922 170.334 415.98 170.532 415.98 170.735C415.98 170.938 415.922 171.137 415.815 171.309L370.437 233.88C370.342 234.016 370.217 234.129 370.072 234.21C369.927 234.29 369.765 234.336 369.599 234.343ZM251.939 232.136H368.914L412.813 171.729H298.531L251.939 232.136Z" fill="#191B1D"/>
<path d="M332.32 221.852C332.091 221.851 331.867 221.777 331.682 221.643C331.496 221.508 331.356 221.319 331.283 221.102C325.478 203.997 317.4 185.237 314.465 184.795C310.956 184.795 288.443 203.401 268.447 221.587C268.231 221.786 267.944 221.891 267.65 221.879C267.356 221.866 267.079 221.738 266.88 221.521C266.681 221.305 266.576 221.018 266.589 220.724C266.601 220.43 266.73 220.153 266.947 219.954C273.877 213.664 308.329 182.61 314.664 182.61H314.906C320.556 183.471 330.555 211.744 333.49 220.396C333.538 220.533 333.558 220.679 333.548 220.824C333.538 220.969 333.499 221.111 333.433 221.241C333.367 221.371 333.275 221.486 333.164 221.58C333.052 221.673 332.923 221.744 332.784 221.786C332.638 221.848 332.478 221.871 332.32 221.852Z" fill="#D1D3D4"/>
<path d="M368.339 224.146C368.097 224.145 367.863 224.064 367.671 223.917C367.48 223.769 367.342 223.563 367.279 223.33C363.395 209.535 357.855 194.814 355.251 194.042C352.646 193.269 340.552 204.194 330.708 214.7C330.506 214.914 330.228 215.038 329.934 215.047C329.64 215.055 329.355 214.946 329.141 214.744C328.927 214.542 328.803 214.264 328.794 213.97C328.786 213.676 328.895 213.391 329.097 213.177C334.129 207.814 350.903 190.444 355.891 191.945C360.879 193.446 368.03 217.856 369.398 222.844C369.48 223.125 369.447 223.427 369.306 223.684C369.166 223.94 368.929 224.131 368.648 224.213L368.339 224.146Z" fill="#D1D3D4"/>
<path d="M403.806 204.835C401.091 204.835 398.95 203.533 398.95 201.877C398.95 200.222 401.157 198.942 403.806 198.942C406.454 198.942 408.661 200.222 408.661 201.877C408.661 203.533 406.52 204.835 403.806 204.835ZM403.806 199.494C401.466 199.494 399.392 200.575 399.392 201.877C399.392 203.179 401.356 204.283 403.806 204.283C406.256 204.283 408.11 203.179 408.11 201.877C408.11 200.575 406.145 199.56 403.806 199.56V199.494Z" fill="#A7A9AC"/>
<path d="M423.097 179.807H413.298C413.229 179.802 413.165 179.772 413.116 179.723C413.068 179.675 413.038 179.61 413.033 179.542C413.033 179.469 413.06 179.4 413.109 179.346C413.158 179.293 413.226 179.26 413.298 179.255H423.097C423.134 179.255 423.171 179.262 423.204 179.277C423.238 179.292 423.268 179.313 423.293 179.34C423.318 179.367 423.337 179.399 423.349 179.434C423.361 179.468 423.365 179.505 423.362 179.542C423.362 179.612 423.334 179.679 423.285 179.729C423.235 179.779 423.168 179.807 423.097 179.807Z" fill="#A7A9AC"/>
<path d="M387.034 249.33C386.798 249.332 386.568 249.262 386.372 249.131C386.139 248.955 385.984 248.696 385.938 248.408C385.893 248.119 385.962 247.825 386.129 247.586L417.426 204.636C417.511 204.519 417.619 204.419 417.742 204.343C417.866 204.267 418.004 204.217 418.148 204.194C418.291 204.171 418.438 204.178 418.579 204.212C418.72 204.246 418.853 204.308 418.971 204.394C419.203 204.569 419.359 204.829 419.404 205.117C419.449 205.405 419.381 205.7 419.213 205.939L387.917 248.977C387.804 249.096 387.667 249.19 387.515 249.251C387.362 249.312 387.198 249.339 387.034 249.33Z" fill="white"/>
<path d="M332.32 186.605C331.36 186.605 330.421 186.32 329.623 185.786C328.824 185.253 328.202 184.495 327.834 183.607C327.467 182.72 327.371 181.744 327.558 180.802C327.745 179.86 328.208 178.995 328.887 178.316C329.566 177.637 330.431 177.174 331.373 176.987C332.315 176.8 333.291 176.896 334.179 177.263C335.066 177.631 335.824 178.253 336.358 179.052C336.891 179.85 337.176 180.789 337.176 181.749C337.176 183.037 336.664 184.272 335.754 185.183C334.843 186.093 333.608 186.605 332.32 186.605ZM332.32 179.101C331.797 179.101 331.285 179.256 330.849 179.547C330.413 179.838 330.074 180.252 329.874 180.736C329.673 181.22 329.621 181.752 329.723 182.266C329.825 182.78 330.077 183.251 330.448 183.622C330.818 183.992 331.29 184.245 331.804 184.347C332.317 184.449 332.85 184.396 333.334 184.196C333.818 183.996 334.232 183.656 334.523 183.221C334.814 182.785 334.969 182.273 334.969 181.749C334.972 181.401 334.905 181.055 334.773 180.732C334.641 180.409 334.446 180.116 334.2 179.87C333.953 179.623 333.66 179.428 333.337 179.296C333.015 179.164 332.669 179.098 332.32 179.101Z" fill="#D1D3D4"/>
<path d="M526.743 250.101H28.5615V271.223H526.743V250.101Z" fill="white"/>
<path d="M526.764 272.328H28.5606C28.2679 272.328 27.9872 272.212 27.7802 272.005C27.5733 271.798 27.457 271.517 27.457 271.224V250.103C27.4627 249.812 27.5808 249.534 27.7865 249.329C27.9923 249.123 28.2697 249.005 28.5606 248.999H526.764C527.055 249.005 527.333 249.123 527.538 249.329C527.744 249.534 527.862 249.812 527.868 250.103V271.224C527.868 271.517 527.752 271.798 527.545 272.005C527.338 272.212 527.057 272.328 526.764 272.328ZM29.6641 270.121H525.572V251.184H29.6641V270.121Z" fill="#191B1D"/>
<path d="M215.94 364.363C216.404 365.93 188.528 465.999 188.528 465.999L227.483 472.267L273.523 334.016L215.94 364.363Z" fill="white"/>
<path d="M227.483 473.369H227.307L188.352 467.101C188.196 467.079 188.047 467.024 187.914 466.94C187.781 466.857 187.667 466.746 187.579 466.616C187.425 466.341 187.378 466.019 187.447 465.711C198.328 426.734 214.528 367.783 214.837 364.472C214.821 364.257 214.87 364.041 214.976 363.853C215.082 363.665 215.24 363.512 215.433 363.413L273.015 333.066C273.212 332.967 273.434 332.926 273.653 332.95C273.872 332.973 274.08 333.059 274.251 333.198C274.412 333.346 274.529 333.536 274.587 333.746C274.646 333.957 274.644 334.18 274.582 334.39L228.521 472.641C228.446 472.856 228.306 473.042 228.12 473.173C227.934 473.304 227.711 473.373 227.483 473.369ZM189.963 465.093L226.777 471.03L271.669 336.288L216.933 365.112C215.72 371.447 206.648 405.016 189.919 465.093H189.963Z" fill="#191B1D"/>
<path d="M186.167 461.673L180.229 480.345L273.523 487.562C269.142 478.738 261.566 471.912 252.335 468.471C242.646 465.072 232.206 461.011 232.206 461.011L227.483 472.267L186.167 461.673Z" fill="#191B1D"/>
<path d="M273.522 488.666L180.229 481.449C180.063 481.437 179.901 481.387 179.757 481.304C179.613 481.22 179.489 481.105 179.396 480.967C179.302 480.829 179.241 480.671 179.217 480.507C179.194 480.342 179.207 480.173 179.258 480.014L185.195 461.342C185.282 461.075 185.467 460.851 185.713 460.716C185.959 460.581 186.247 460.544 186.519 460.614L226.909 470.965L231.323 460.592C231.376 460.46 231.455 460.34 231.555 460.238C231.655 460.137 231.774 460.056 231.905 460.001C232.036 459.945 232.177 459.916 232.32 459.916C232.462 459.915 232.604 459.942 232.735 459.996C232.846 459.996 243.263 464.079 252.842 467.434C262.367 470.964 270.179 478.009 274.67 487.121C274.763 487.286 274.811 487.472 274.811 487.662C274.811 487.851 274.763 488.038 274.67 488.203C274.551 488.39 274.377 488.536 274.171 488.619C273.965 488.703 273.738 488.719 273.522 488.666ZM181.686 479.352L271.624 486.327C267.254 478.589 260.3 472.635 251.981 469.509C244.102 466.75 235.649 463.527 232.802 462.446L228.498 472.687C228.395 472.934 228.207 473.137 227.969 473.258C227.73 473.379 227.456 473.412 227.196 473.349L186.894 463.064L181.686 479.352Z" fill="#191B1D"/>
<path d="M120.684 365.688L114.063 471.098C114.063 471.098 91.683 471.87 86.077 475.799C80.471 479.727 75.9023 497.516 75.9023 497.516H82.8767C82.8767 497.516 86.9377 484.274 91.396 482.685C95.8543 481.096 121.192 480.478 121.192 480.478C121.192 480.478 133.419 485.201 135.383 493.301C136.928 499.679 136.487 501.158 136.487 501.158H144.211C144.193 497.528 143.673 493.919 142.666 490.432C141.121 486.017 135.317 480.742 135.317 480.742C135.317 480.742 148.096 481.007 152.356 481.007C156.615 481.007 161.051 489.129 161.051 489.129H169.372C169.372 489.129 160.676 474.474 155.048 473.437C149.42 472.4 134.986 469.884 134.986 469.884L131.057 371.669L120.684 365.688Z" fill="#191B1D"/>
<path d="M144.301 502.284H136.576C136.402 502.281 136.231 502.239 136.074 502.163C135.918 502.087 135.78 501.977 135.671 501.842C135.571 501.699 135.506 501.536 135.479 501.363C135.452 501.191 135.465 501.015 135.516 500.849C135.526 498.384 135.146 495.934 134.391 493.588C132.735 486.68 122.605 482.243 121.148 481.625C113.975 481.78 95.3917 482.442 91.9266 483.833C89.0574 484.892 85.5923 493.058 84.0915 497.936C84.0216 498.163 83.8813 498.363 83.691 498.505C83.5007 498.648 83.27 498.727 83.0321 498.73H75.9915C75.8241 498.725 75.66 498.683 75.511 498.606C75.3621 498.529 75.2322 498.421 75.1307 498.287C75.0291 498.154 74.9587 498 74.9243 497.836C74.89 497.672 74.8926 497.503 74.9321 497.34C75.1087 496.611 79.6553 479.109 85.5261 475.004C90.7127 471.385 108.612 470.347 113.115 470.149L119.603 365.71C119.618 365.524 119.678 365.344 119.778 365.186C119.878 365.028 120.015 364.898 120.177 364.805C120.34 364.718 120.522 364.672 120.707 364.672C120.892 364.672 121.074 364.718 121.237 364.805L131.698 370.83C131.86 370.921 131.996 371.052 132.093 371.21C132.189 371.369 132.243 371.55 132.25 371.735L136.156 469.067C139.379 469.619 150.591 471.561 155.358 472.466C161.273 473.57 169.505 487.121 170.41 488.666C170.507 488.834 170.558 489.024 170.558 489.218C170.558 489.411 170.507 489.602 170.41 489.77C170.313 489.942 170.172 490.086 170.002 490.187C169.831 490.288 169.637 490.342 169.439 490.343H161.119C160.92 490.342 160.726 490.288 160.556 490.187C160.385 490.086 160.244 489.942 160.147 489.77C158.558 486.856 155.027 482.221 152.423 482.221C149.421 482.221 142.138 482.089 138.121 482.023C140.519 484.342 142.439 487.109 143.771 490.167C144.83 493.75 145.372 497.466 145.382 501.202C145.376 501.487 145.261 501.759 145.059 501.961C144.857 502.162 144.586 502.278 144.301 502.284ZM137.679 500.077H143.131C143.058 496.936 142.568 493.819 141.674 490.807C140.24 486.68 134.678 481.647 134.612 481.581C134.449 481.43 134.336 481.234 134.285 481.018C134.233 480.802 134.247 480.575 134.325 480.367C134.416 480.162 134.565 479.986 134.752 479.861C134.94 479.736 135.159 479.667 135.384 479.661C135.516 479.661 148.185 479.926 152.401 479.926C156.616 479.926 160.545 485.995 161.736 488.048H167.431C164.473 483.391 158.602 475.225 154.895 474.541C149.355 473.503 135.031 471.031 134.854 471.009C134.601 470.968 134.369 470.84 134.2 470.647C134.031 470.453 133.934 470.207 133.927 469.95L130.065 372.353L121.678 367.52L115.255 471.252C115.239 471.526 115.122 471.784 114.926 471.975C114.73 472.167 114.47 472.279 114.196 472.289C108.06 472.51 91.1762 473.724 86.8062 476.704C82.8335 479.485 78.9931 490.807 77.4261 496.413H82.1493C83.1645 493.301 86.7841 483.17 90.9776 481.647C95.171 480.125 120.111 479.44 121.148 479.44H121.568C122.097 479.639 134.369 484.451 136.443 493.014C137.1 495.321 137.529 497.686 137.724 500.077H137.679Z" fill="#191B1D"/>
<path d="M248.298 298.459C248.298 298.459 336.449 303.161 342.011 315.719C347.572 328.277 306.697 466.374 306.697 466.374C306.697 466.374 349.846 481.294 342.783 484.428C335.72 487.562 265.094 481.294 265.094 481.294L298.575 353.283L211.352 347.412L248.298 298.459Z" fill="white"/>
<path d="M331.679 486.413C310.976 486.413 270.741 482.904 265.069 482.396C264.908 482.382 264.751 482.334 264.61 482.254C264.469 482.174 264.347 482.064 264.253 481.933C264.162 481.799 264.101 481.646 264.074 481.486C264.047 481.326 264.056 481.162 264.098 481.006L297.204 354.386L211.305 348.603C211.109 348.581 210.923 348.511 210.761 348.4C210.599 348.288 210.468 348.138 210.378 347.963C210.294 347.782 210.261 347.58 210.285 347.382C210.308 347.183 210.386 346.995 210.51 346.838L247.479 297.796C247.575 297.642 247.713 297.518 247.877 297.439C248.042 297.361 248.225 297.332 248.406 297.355C248.626 297.355 270.741 298.547 293.254 301.283C339.359 306.845 342.162 313.18 343.089 315.276C348.541 327.614 312.19 452.115 308.173 465.689C319.893 469.772 344.612 478.931 344.789 483.456C344.795 483.897 344.659 484.329 344.4 484.686C344.142 485.044 343.775 485.309 343.354 485.442C339.53 486.327 335.597 486.654 331.679 486.413ZM266.548 480.3C287.03 482.109 336.954 485.839 342.405 483.412C340.949 480.741 322.806 473.127 306.342 467.454C306.073 467.359 305.851 467.163 305.724 466.908C305.596 466.653 305.572 466.358 305.657 466.086C316.958 427.793 345.385 326.179 340.971 316.181C336.556 306.183 273.566 300.952 248.803 299.606L213.49 346.551L298.683 352.311C298.846 352.319 299.006 352.363 299.151 352.439C299.296 352.515 299.422 352.622 299.522 352.752C299.699 353.027 299.762 353.359 299.698 353.679L266.548 480.3Z" fill="#191B1D"/>
<path d="M218.389 219.976C218.389 219.976 263.678 276.477 283.034 274.91C302.39 273.343 357.832 203.687 357.832 203.687C367.852 191.725 379.064 176.54 371.891 160.054C371.185 158.464 369.949 156.765 368.227 156.897C367.503 157.009 366.815 157.288 366.219 157.714L360.039 161.51C360.238 159.811 358.075 158.597 356.419 159.06C354.808 159.69 353.466 160.861 352.623 162.371C346.201 171.508 342.051 180.204 342.404 191.46L277.605 224.566L251.892 196.117" fill="white"/>
<path d="M282.262 276.035C262.155 276.035 219.36 223.065 217.528 220.66C217.375 220.429 217.314 220.15 217.357 219.877C217.4 219.604 217.544 219.357 217.761 219.185C217.977 219.013 218.25 218.928 218.526 218.948C218.802 218.968 219.06 219.09 219.25 219.291C219.691 219.843 263.215 273.85 282.196 273.85H282.946C301.618 272.349 356.376 203.731 356.905 203.025C367.256 190.709 377.696 176.275 370.832 160.539C370.567 159.921 369.64 157.956 368.272 158.045C367.72 158.145 367.199 158.372 366.749 158.707L360.525 162.481C360.349 162.59 360.146 162.647 359.939 162.646C359.732 162.645 359.53 162.586 359.355 162.475C359.18 162.365 359.04 162.208 358.95 162.021C358.86 161.835 358.825 161.627 358.847 161.422C358.861 161.262 358.832 161.102 358.762 160.958C358.692 160.814 358.584 160.692 358.45 160.605C358.199 160.404 357.907 160.26 357.594 160.184C357.282 160.108 356.956 160.101 356.64 160.164C355.281 160.743 354.154 161.761 353.44 163.055C348.011 170.78 343.045 179.564 343.42 191.482C343.427 191.69 343.374 191.896 343.269 192.076C343.163 192.255 343.009 192.402 342.824 192.497L278.024 225.603C277.808 225.715 277.56 225.751 277.321 225.707C277.081 225.663 276.863 225.542 276.7 225.361L251.01 196.867C250.906 196.765 250.824 196.643 250.768 196.508C250.712 196.374 250.683 196.229 250.683 196.084C250.683 195.938 250.712 195.794 250.768 195.659C250.824 195.525 250.906 195.403 251.01 195.3C251.22 195.097 251.501 194.983 251.793 194.983C252.086 194.983 252.367 195.097 252.577 195.3L277.693 223.065L341.147 190.732C340.948 178.526 346.024 169.544 351.564 161.664C352.558 159.941 354.118 158.615 355.978 157.912C356.648 157.751 357.346 157.749 358.017 157.906C358.688 158.064 359.312 158.375 359.841 158.817C360.138 159.076 360.392 159.382 360.591 159.722L365.535 156.698C366.283 156.176 367.146 155.842 368.051 155.727C369.971 155.573 371.671 156.985 372.774 159.546C380.764 177.864 366.329 195.08 358.561 204.327C356.353 207.152 302.677 274.358 283.056 275.947L282.262 276.035Z" fill="#191B1D"/>
<path d="M70.1393 210.33C70.1393 210.33 46.8105 263.189 55.4623 268.839C64.114 274.489 116.775 268.839 116.775 268.839L112.206 200.42" fill="white"/>
<path d="M75.48 272.327C66.0558 272.327 57.8234 271.664 54.8218 269.678C53.321 268.707 48.7302 265.727 58.5076 237.102C63.2087 223.307 69.0574 210.021 69.1237 209.888C69.1702 209.74 69.2474 209.604 69.3502 209.488C69.453 209.372 69.5792 209.279 69.7204 209.215C69.8616 209.151 70.0147 209.117 70.1698 209.116C70.3249 209.115 70.4784 209.147 70.6204 209.209C70.7623 209.272 70.8896 209.363 70.9937 209.478C71.0979 209.593 71.1767 209.729 71.225 209.876C71.2733 210.023 71.29 210.179 71.274 210.334C71.2579 210.488 71.2096 210.637 71.1321 210.771C62.3038 230.878 50.3414 264.138 56.0357 267.824C62.6569 272.238 100.177 269.325 115.627 267.824L111.213 200.486C111.202 200.341 111.221 200.196 111.267 200.058C111.313 199.92 111.386 199.793 111.481 199.683C111.674 199.462 111.946 199.326 112.239 199.305C112.532 199.285 112.82 199.382 113.042 199.574C113.263 199.766 113.399 200.039 113.42 200.332L117.988 268.751C118.007 269.037 117.914 269.319 117.728 269.537C117.543 269.755 117.28 269.893 116.995 269.921C115.45 270.009 93.2029 272.327 75.48 272.327Z" fill="#191B1D"/>
<path d="M89.1423 299.916C89.1423 299.916 77.7317 325.253 89.8927 341.233C102.054 357.212 270.873 359.132 270.873 359.132L282.99 298.459L212.363 288.836L208.258 267.847L89.1423 299.916Z" fill="white"/>
<path d="M270.918 360.236C270.498 360.236 228.189 359.729 184.842 357.279C126.465 353.968 94.1971 348.782 88.9442 341.829C76.5404 325.541 87.5758 300.469 88.0614 299.409C88.1274 299.257 88.2274 299.123 88.3536 299.015C88.4799 298.908 88.6291 298.832 88.7897 298.791L207.972 266.722C208.12 266.677 208.276 266.666 208.428 266.689C208.581 266.712 208.727 266.768 208.855 266.855C208.98 266.933 209.087 267.036 209.17 267.158C209.254 267.279 209.312 267.416 209.34 267.561L213.291 287.8L283.057 297.29C283.208 297.309 283.353 297.36 283.482 297.44C283.612 297.52 283.723 297.627 283.807 297.754C283.895 297.873 283.956 298.009 283.986 298.154C284.017 298.299 284.016 298.448 283.984 298.593L271.999 359.331C271.953 359.585 271.819 359.814 271.622 359.979C271.424 360.144 271.175 360.235 270.918 360.236ZM89.9374 300.844C88.5028 304.353 80.0497 326.49 90.7761 340.571C100.09 352.798 211.547 357.345 270.013 358.051L281.732 299.409L212.342 289.963C212.115 289.93 211.904 289.828 211.737 289.67C211.571 289.511 211.459 289.305 211.415 289.08L207.553 269.216L89.9374 300.844Z" fill="#191B1D"/>
<path d="M158.313 86.4694C156.59 85.4356 155.09 84.0703 153.899 82.4525C152.246 80.0825 151.048 77.4255 150.367 74.6173C144.386 52.988 144.342 25.2891 163.61 10.4796C169.293 6.13692 175.934 3.21934 182.976 1.97133C190.019 0.723314 197.258 1.1812 204.088 3.30664C213.446 6.35241 221.391 19.2197 225.562 27.5845C228.983 34.3602 231.301 41.7319 235.362 48.1324C239.423 54.5329 245.89 60.1389 253.482 60.5141C250.475 62.1967 247.126 63.1778 243.687 63.3842C240.247 63.5906 236.805 63.0169 233.618 61.7059C235.104 63.7001 237.132 65.2246 239.461 66.0973C241.789 66.9701 244.32 67.1542 246.75 66.6277C242.336 70.137 236.024 70.0045 230.462 68.8348C224.9 67.665 219.427 65.8994 213.71 66.6277C204.882 67.6209 199.144 74.1097 192.236 78.8108C183.473 84.5492 168.333 92.274 158.313 86.4694Z" fill="white"/>
<path d="M166.633 89.6474C163.546 89.7137 160.498 88.9516 157.805 87.4404C155.92 86.317 154.289 84.8138 153.016 83.0262C151.275 80.5145 150.017 77.7002 149.308 74.7276C146.395 64.1336 138.714 28.07 162.881 9.44224C168.705 4.9779 175.517 1.97968 182.742 0.700544C189.967 -0.578592 197.394 -0.101124 204.397 2.09266C214.417 5.33707 222.561 18.9768 226.467 26.8119C227.792 29.4604 228.983 32.2193 230.109 34.8898C231.809 39.179 233.845 43.3265 236.201 47.2936C238.408 50.7146 244.411 58.7042 253.438 59.1456C253.676 59.1542 253.904 59.241 254.088 59.3926C254.271 59.5443 254.4 59.7523 254.453 59.9843C254.516 60.2167 254.498 60.4636 254.401 60.6842C254.305 60.9049 254.136 61.0862 253.923 61.1982C249.024 63.9283 243.324 64.8575 237.812 63.8246C240.397 65.4143 243.5 65.9366 246.463 65.2813C246.71 65.2181 246.97 65.2418 247.2 65.3482C247.431 65.4547 247.618 65.6375 247.729 65.8657C247.841 66.0939 247.87 66.3536 247.813 66.601C247.755 66.8484 247.614 67.0683 247.413 67.2235C243.462 70.3355 237.679 71.1742 230.219 69.7396C228.895 69.4968 227.571 69.1878 226.247 68.8788C222.214 67.7129 218.013 67.2353 213.821 67.4663C207.575 68.1726 202.94 71.8805 198.018 75.6104C196.341 76.9126 194.619 78.2369 192.832 79.4728C187.689 83.0483 176.654 89.6474 166.633 89.6474ZM190.801 2.26923C181.18 2.26366 171.825 5.42846 164.184 11.2741C141.12 29.0852 148.558 63.9571 151.405 74.2421C152.05 76.9465 153.195 79.5066 154.781 81.7903C155.889 83.3018 157.293 84.5711 158.909 85.5202C169.547 91.7 186.652 81.1061 191.64 77.7292C193.361 76.5595 195.061 75.2352 196.694 73.9551C201.638 70.1148 206.758 66.1421 213.622 65.3696C218.087 65.0902 222.567 65.583 226.865 66.8263C228.167 67.1132 229.469 67.4222 230.771 67.6649C234.445 68.5208 238.266 68.5208 241.939 67.6649C238.298 67.0817 235.029 65.1024 232.824 62.1473C232.68 61.9562 232.603 61.7239 232.603 61.4851C232.603 61.2464 232.68 61.014 232.824 60.823C232.968 60.6308 233.173 60.4934 233.406 60.4333C233.638 60.3731 233.885 60.3938 234.104 60.4919C239.082 62.5078 244.627 62.6256 249.686 60.823C243.24 58.7833 237.797 54.3954 234.435 48.5296C232.004 44.4694 229.907 40.2177 228.167 35.8168C227.041 33.1904 225.96 30.4536 224.569 27.8713C221.524 21.8019 213.379 7.36758 203.757 4.2556C199.569 2.91851 195.197 2.2482 190.801 2.26923Z" fill="#191B1D"/>
<path d="M218.126 70.7549C218.126 70.7549 224.151 89.6033 220.995 92.2739C217.839 94.9445 211.284 90.751 211.284 90.751" fill="white"/>
<path d="M218.323 94.2826C215.624 94.0514 213.023 93.1568 210.753 91.6782C210.623 91.604 210.509 91.504 210.419 91.3844C210.329 91.2648 210.264 91.1281 210.228 90.9825C210.192 90.837 210.187 90.6858 210.211 90.538C210.236 90.3902 210.291 90.2489 210.372 90.1229C210.453 89.9969 210.558 89.8886 210.683 89.8048C210.807 89.721 210.947 89.6634 211.094 89.6355C211.241 89.6075 211.393 89.6099 211.539 89.6423C211.685 89.6748 211.823 89.7367 211.945 89.8243C213.49 90.7954 218.323 93.2011 220.332 91.4354C221.855 90.1333 219.89 79.8703 217.065 71.1082C216.982 70.8273 217.011 70.5248 217.147 70.2651C217.283 70.0054 217.515 69.8091 217.794 69.7178C218.072 69.6273 218.374 69.6508 218.635 69.7832C218.896 69.9156 219.093 70.1461 219.184 70.424C220.641 75.0148 225.165 90.2877 221.766 93.1128C220.805 93.9183 219.577 94.3354 218.323 94.2826Z" fill="#191B1D"/>
<path d="M221.79 49.1475C226.932 56.475 221.79 67.4663 219.582 74.9483C216.537 85.4834 213.248 95.9376 209.717 106.311C207.51 112.932 190.118 108.143 187.646 105.296L182.923 132.465L146.352 119.818L158.115 86.8665C158.115 86.8665 169.879 90.2654 180.473 78.5458C191.067 66.8262 198.439 36.9424 198.439 36.9424C198.439 36.9424 216.779 41.9745 221.79 49.1475Z" fill="white"/>
<path d="M182.899 133.568H182.546L145.953 120.966C145.814 120.923 145.686 120.852 145.575 120.757C145.465 120.662 145.376 120.545 145.313 120.414C145.213 120.136 145.213 119.832 145.313 119.553L156.988 86.4914C157.079 86.2292 157.267 86.012 157.514 85.8847C157.76 85.7574 158.046 85.7296 158.312 85.8072C158.776 85.9175 169.591 88.8309 179.567 77.7955C189.543 66.7601 197.223 36.9866 197.223 36.6776C197.256 36.5347 197.318 36.4 197.405 36.2822C197.493 36.1645 197.604 36.0661 197.731 35.9934C198 35.8831 198.301 35.8831 198.57 35.9934C199.342 36.2141 217.374 41.2242 222.561 48.6179C227.151 55.2391 224.194 64.0674 221.788 71.3508C221.325 72.7633 220.883 74.1097 220.508 75.3677C217.462 85.8513 214.152 96.4232 210.62 106.774C210.188 107.791 209.487 108.672 208.593 109.321C207.699 109.97 206.645 110.364 205.544 110.46C199.606 111.119 193.606 109.997 188.307 107.238L183.893 132.663C183.868 132.821 183.807 132.97 183.715 133.1C183.623 133.231 183.503 133.338 183.363 133.414C183.224 133.503 183.064 133.556 182.899 133.568ZM147.741 119.134L182.039 131.008L186.453 105.097C186.489 104.892 186.583 104.701 186.723 104.547C186.864 104.393 187.045 104.282 187.246 104.227C187.447 104.171 187.659 104.174 187.859 104.234C188.058 104.294 188.236 104.41 188.373 104.567C189.962 106.399 199.519 109.401 205.125 108.297C207.023 107.922 208.17 107.128 208.568 105.936C212.077 95.6287 215.41 85.1009 218.433 74.6394C218.808 73.3593 219.272 71.9909 219.735 70.5342C221.943 63.8026 224.768 55.4157 220.795 49.7656C216.822 44.1155 203.138 39.5248 199.121 38.3329C197.643 43.961 190.801 68.6361 181.178 79.2742C171.93 89.493 161.91 88.7205 158.71 88.1025L147.741 119.134Z" fill="#191B1D"/>
<path d="M211.679 98.3644C211.679 98.3644 202.079 101.101 200.114 91.4121L211.679 98.3644Z" fill="white"/>
<path d="M208.747 99.821C206.854 99.8694 204.983 99.396 203.34 98.4527C202.163 97.6933 201.161 96.6927 200.4 95.517C199.639 94.3413 199.137 93.0173 198.926 91.6328C198.874 91.3427 198.938 91.0438 199.103 90.8002C199.269 90.5566 199.524 90.3878 199.813 90.33C200.102 90.2722 200.402 90.33 200.649 90.4911C200.896 90.6521 201.07 90.9036 201.133 91.1914C201.28 92.267 201.65 93.3 202.22 94.2238C202.79 95.1475 203.548 95.9415 204.444 96.5546C206.567 97.6234 209.004 97.8898 211.308 97.305C211.453 97.2658 211.604 97.2556 211.753 97.2749C211.901 97.2943 212.045 97.3427 212.175 97.4175C212.305 97.4923 212.42 97.592 212.511 97.7109C212.603 97.8298 212.67 97.9656 212.709 98.1105C212.748 98.2555 212.758 98.4067 212.739 98.5555C212.72 98.7044 212.671 98.848 212.597 98.9781C212.522 99.1083 212.422 99.2224 212.303 99.314C212.184 99.4056 212.048 99.4729 211.904 99.512C210.868 99.7432 209.808 99.847 208.747 99.821Z" fill="#191B1D"/>
<path d="M195.991 71.8372C196.439 69.1126 196.126 66.3171 195.086 63.7593C194.548 61.6939 193.715 59.7167 192.614 57.8884C192.041 56.9868 191.278 56.2214 190.379 55.6457C189.479 55.07 188.464 54.698 187.405 54.5557C186.454 54.5388 185.51 54.7271 184.638 55.108C183.765 55.4889 182.986 56.0533 182.351 56.7628C181.063 58.1456 180.111 59.8073 179.57 61.6184C178.294 65.5258 178.064 69.6996 178.905 73.7233C179.745 77.7471 181.626 81.4801 184.36 84.5499L183.94 83.7554" fill="white"/>
<path d="M184.356 85.6533C184.204 85.6517 184.053 85.6197 183.912 85.5591C183.772 85.4984 183.646 85.4104 183.54 85.3001C180.67 82.0671 178.696 78.1399 177.813 73.9081C176.931 69.6764 177.17 65.2874 178.508 61.1768C179.099 59.2057 180.142 57.3996 181.553 55.9019C182.314 55.0972 183.236 54.4629 184.259 54.0406C185.283 53.6184 186.384 53.4177 187.49 53.452C188.718 53.5911 189.898 54.007 190.942 54.6684C191.986 55.3298 192.866 56.2194 193.516 57.2702C194.688 59.1831 195.573 61.2579 196.142 63.428C197.249 66.1776 197.569 69.1805 197.069 72.1018C196.992 72.3876 196.804 72.6314 196.548 72.7801C196.292 72.9288 195.988 72.9706 195.701 72.8964C195.421 72.8189 195.182 72.634 195.038 72.382C194.893 72.1299 194.854 71.8309 194.928 71.55C195.298 69.0272 194.986 66.4514 194.023 64.0901C193.528 62.1288 192.74 60.2537 191.684 58.5283C191.211 57.7493 190.568 57.0869 189.804 56.5901C189.04 56.0934 188.174 55.7752 187.27 55.6591C186.484 55.6439 185.704 55.7954 184.981 56.1036C184.259 56.4117 183.609 56.8695 183.076 57.4468C181.902 58.7036 181.034 60.2141 180.538 61.861C179.396 65.3569 179.126 69.0793 179.753 72.7034C180.38 76.3274 181.885 79.7429 184.136 82.6516C184.289 82.6938 184.433 82.7663 184.558 82.8648C184.683 82.9634 184.787 83.086 184.864 83.2255L185.261 84.02C185.389 84.2572 185.423 84.5334 185.358 84.7946C185.293 85.0559 185.132 85.2833 184.908 85.4326C184.75 85.5584 184.558 85.6351 184.356 85.6533Z" fill="#191B1D"/>
<path d="M218.821 61.9922C219.292 59.8867 218.999 58.0289 218.167 57.8426C217.334 57.6563 216.277 59.2121 215.806 61.3176C215.335 63.4231 215.628 65.2809 216.461 65.4672C217.293 65.6534 218.35 64.0977 218.821 61.9922Z" fill="#191B1D"/>
<path d="M187.622 105.296C182.827 102.185 178.234 98.7717 173.872 95.0776C173.872 95.0776 171.665 114.191 184.753 118.583L187.622 105.296Z" fill="#191B1D"/>
<path d="M184.755 119.686C184.638 119.707 184.519 119.707 184.402 119.686C170.674 115.073 172.682 95.8274 172.77 95.0108C172.794 94.8129 172.87 94.6248 172.99 94.4658C173.11 94.3068 173.271 94.1826 173.455 94.1059C173.641 94.0348 173.843 94.0137 174.041 94.0446C174.238 94.0756 174.424 94.1576 174.58 94.2825C178.912 97.9461 183.467 101.337 188.22 104.435C188.405 104.557 188.55 104.731 188.636 104.936C188.722 105.14 188.747 105.365 188.706 105.583L185.836 118.825C185.803 118.976 185.739 119.119 185.648 119.245C185.556 119.37 185.44 119.475 185.307 119.553C185.136 119.641 184.947 119.686 184.755 119.686ZM174.867 97.3282C174.867 102.051 175.485 113.33 183.96 117.082L186.388 105.803C182.403 103.181 178.557 100.352 174.867 97.3282Z" fill="#191B1D"/>
<path d="M82.3027 308.281C82.3027 308.281 84.2891 173.208 104.55 142.11C124.811 111.012 177.384 103.994 202.456 122.533C227.528 141.073 215.456 282.767 215.456 282.767C215.456 282.767 135.515 308.281 82.3027 308.281Z" fill="#FFC200"/>
<path d="M184.953 114.588C198.289 120.006 210.754 127.361 221.943 136.416C239.291 150.829 275.906 212.803 275.906 212.803L227.616 242.047L184.269 188.592L184.953 114.588Z" fill="#FFC200"/>
<path d="M125.428 122.997C125.428 122.997 100.157 125.844 86.7826 153.587C79.5434 168.639 61.0039 217.239 61.0039 217.239L116.755 223.662L125.428 122.997Z" fill="#FFC200"/>
<path d="M223.999 238.67C223.825 238.67 223.654 238.627 223.501 238.546C223.347 238.466 223.215 238.349 223.116 238.207L180.056 179.565C179.969 179.449 179.905 179.317 179.869 179.177C179.834 179.036 179.826 178.89 179.846 178.747C179.867 178.603 179.915 178.465 179.989 178.34C180.063 178.216 180.16 178.107 180.276 178.02C180.515 177.852 180.81 177.784 181.098 177.829C181.386 177.874 181.645 178.03 181.821 178.263L224.881 236.905C225.004 237.069 225.079 237.264 225.098 237.468C225.116 237.672 225.077 237.877 224.986 238.06C224.894 238.244 224.753 238.398 224.579 238.506C224.404 238.613 224.204 238.67 223.999 238.67Z" fill="#191B1D"/>
<path d="M352.534 172.39L363.305 138.953L366.659 139.924L359.884 172.898C359.884 172.898 355.116 177.489 352.534 172.39Z" fill="#191B1D"/>
<path d="M355.847 175.9H355.096C354.308 175.734 353.572 175.377 352.952 174.862C352.333 174.346 351.849 173.687 351.543 172.942C351.432 172.674 351.432 172.372 351.543 172.103L362.247 138.622C362.343 138.352 362.536 138.127 362.79 137.992C363.043 137.857 363.338 137.822 363.615 137.894L366.97 138.865C367.236 138.942 367.463 139.117 367.606 139.354C367.749 139.591 367.798 139.874 367.743 140.145L360.967 173.251C360.923 173.462 360.815 173.655 360.658 173.803C359.345 175.037 357.645 175.778 355.847 175.9ZM353.639 172.258C353.808 172.608 354.051 172.916 354.353 173.16C354.654 173.404 355.006 173.578 355.383 173.67C356.648 173.682 357.868 173.199 358.782 172.324L365.293 140.697L363.947 140.322L353.639 172.258Z" fill="#191B1D"/>
<path d="M148.866 96.6869C129.002 92.2728 106.932 95.3627 90.8862 107.722C84.0862 112.686 78.9776 119.62 76.2533 127.586C74.9624 131.588 74.6616 135.844 75.3766 139.988C76.0916 144.131 77.8011 148.04 80.3584 151.378C95.5873 169.675 129.025 169.587 149.705 163.606C163.808 159.544 205.566 139.725 194.067 120.259C185.791 106.332 163.764 99.8872 148.866 96.6869Z" fill="#FFC200"/>
<path d="M123.574 165.263C110.413 164.881 97.5611 161.184 86.2087 154.515C86.083 154.44 85.9737 154.341 85.8874 154.223C85.8012 154.105 85.7397 153.971 85.7067 153.829C85.6737 153.686 85.6698 153.539 85.6954 153.395C85.721 153.251 85.7755 153.114 85.8555 152.992C86.0138 152.746 86.2631 152.573 86.5485 152.511C86.834 152.449 87.1324 152.503 87.3784 152.661C87.6433 152.837 114.945 169.81 140.79 160.01C153.193 155.309 160.653 146.966 167.782 138.911C175.662 130.082 183.099 121.739 195.945 120.57C196.09 120.558 196.236 120.574 196.374 120.619C196.513 120.664 196.641 120.735 196.752 120.829C196.862 120.924 196.953 121.039 197.02 121.169C197.086 121.298 197.125 121.44 197.136 121.585C197.152 121.729 197.138 121.874 197.096 122.013C197.054 122.151 196.984 122.28 196.892 122.391C196.799 122.502 196.685 122.593 196.557 122.66C196.428 122.726 196.287 122.766 196.143 122.777C184.181 123.858 177.339 131.605 169.438 140.433C162.419 148.313 154.474 157.229 141.562 162.129C135.805 164.252 129.711 165.314 123.574 165.263Z" fill="#191B1D"/>
<path d="M84.2888 260.012C84.1439 260.007 84.0015 259.973 83.8697 259.912C83.738 259.851 83.6196 259.765 83.5212 259.658C83.4228 259.552 83.3464 259.427 83.2963 259.291C83.2462 259.154 83.2235 259.01 83.2294 258.865C84.8406 223.927 92.0577 173.65 92.0577 173.142C92.1066 172.855 92.2651 172.597 92.4997 172.425C92.7343 172.252 93.0269 172.176 93.3158 172.215C93.6013 172.259 93.8583 172.413 94.0316 172.644C94.2049 172.875 94.2807 173.165 94.2427 173.451C94.2427 173.958 86.9373 224.214 85.4144 258.953C85.4029 259.242 85.2786 259.515 85.0681 259.713C84.8576 259.911 84.5778 260.018 84.2888 260.012Z" fill="#191B1D"/>
<path d="M253.548 478.933H300.448C300.448 478.933 305.547 467.567 316.538 466C316.538 466 359.311 484.076 353.021 487.783C346.731 491.491 250.237 491.094 250.237 491.094L253.548 478.933Z" fill="#191B1D"/>
<path d="M260.083 492.219H250.218C250.052 492.22 249.888 492.182 249.738 492.11C249.589 492.037 249.459 491.931 249.357 491.8C249.25 491.664 249.177 491.506 249.143 491.338C249.108 491.169 249.113 490.995 249.158 490.828L252.469 478.667C252.533 478.43 252.674 478.222 252.87 478.074C253.065 477.926 253.305 477.847 253.55 477.851H299.767C301.069 475.313 306.388 466.352 316.386 464.917C316.573 464.862 316.772 464.862 316.96 464.917C325.788 468.625 354.48 481.161 354.767 486.635C354.782 487.049 354.681 487.459 354.474 487.818C354.267 488.177 353.963 488.471 353.597 488.666C348.234 491.888 285.663 492.219 260.083 492.219ZM251.674 490.012C290.364 490.122 348.102 489.416 352.472 486.834C352.472 484.097 333.778 474.496 316.386 467.124C306.366 468.758 301.51 479.285 301.466 479.396C301.377 479.589 301.233 479.752 301.053 479.866C300.873 479.979 300.664 480.039 300.451 480.036H254.389L251.674 490.012Z" fill="#191B1D"/>
<path d="M218.103 370.365C247.965 364.075 267.983 350.104 256.241 331.256C244.5 312.407 160.167 324.634 143.68 310.664C127.193 296.693 133.086 222.601 114.988 209.911C96.8902 197.22 19.3114 184.397 10.6376 200.42C1.96373 216.444 10.6375 333.043 35.9086 358.933C61.1796 384.822 188.969 376.368 218.103 370.365Z" fill="#191B1D"/>
<path d="M130.504 377.76H125.516C91.9685 377.473 49.0408 374.096 35.0259 359.794C10.0418 334.016 0.286474 217.372 9.66656 199.958C11.2777 196.978 14.9635 194.793 20.7019 193.337C44.6929 187.642 100.157 198.016 115.606 208.786C125.34 215.606 128.363 238.847 131.299 261.315C133.969 281.84 136.728 303.05 144.431 309.606C151.758 315.829 174.27 316.734 196.054 317.617C222.87 318.699 250.613 319.824 257.257 330.462C261.097 336.642 261.847 342.601 259.464 348.119C255.049 358.316 240.527 366.504 218.39 371.161C203.183 374.516 166.016 377.76 130.504 377.76ZM37.4757 194.065C31.9921 193.967 26.5144 194.478 21.1434 195.588C16.1112 196.78 12.8889 198.612 11.6088 201.017C3.04532 216.842 12.3813 333.243 36.7033 358.227C61.4446 383.631 188.572 375.332 217.86 369.263C238.982 364.849 253.372 356.903 257.367 347.501C259.442 342.645 258.757 337.371 255.314 331.831C249.289 322.164 222.208 321.082 195.9 320.023C172.725 319.096 150.831 318.213 142.93 311.482C134.587 304.375 131.895 283.694 129.047 261.8C126.2 239.906 123.221 217.041 114.26 210.795C102.342 202.386 63.9386 194.065 37.4757 194.065Z" fill="#191B1D"/>
<path d="M273.521 309.385H273.345L202.189 296.937C201.896 296.887 201.635 296.723 201.463 296.481C201.291 296.239 201.223 295.938 201.273 295.646C201.322 295.353 201.486 295.092 201.729 294.92C201.971 294.749 202.271 294.68 202.564 294.73L273.72 307.178C274.013 307.204 274.283 307.345 274.471 307.571C274.66 307.797 274.751 308.088 274.724 308.38C274.698 308.673 274.556 308.943 274.331 309.132C274.105 309.32 273.814 309.411 273.521 309.385Z" fill="#D1D3D4"/>
<path d="M478.669 454.234L476.462 453.991C476.462 453.351 483.415 389.456 461.3 361.073L463.043 359.727C472.578 371.954 478.118 391.597 479.464 418.104C480.075 430.15 479.81 442.226 478.669 454.234Z" fill="#191B1D"/>
<path d="M471.055 462.378C471.019 461.635 471.094 460.892 471.275 460.171C476.55 426.734 467.612 411.152 459.181 403.957L460.615 402.279C469.444 409.828 478.89 426.072 473.46 460.524C473.328 461.363 473.24 461.915 473.24 462.135L471.055 462.378Z" fill="#191B1D"/>
<path d="M459.604 389.766C457.818 388.72 455.802 388.128 453.733 388.045C451.898 387.782 450.028 387.899 448.24 388.388C446.451 388.878 444.783 389.73 443.338 390.892C442.609 391.598 441.969 392.79 442.631 393.562C443.024 393.921 443.517 394.152 444.044 394.224C445.488 394.636 446.804 395.41 447.866 396.472C448.928 397.534 449.702 398.849 450.113 400.294C448.59 399.168 447.288 397.734 445.699 396.608C444.229 395.375 442.339 394.758 440.424 394.887C438.351 395.376 436.524 396.599 435.282 398.33C433.856 399.854 432.673 401.589 431.773 403.472C430.833 405.364 430.553 407.516 430.978 409.586C432.992 409.006 435.106 408.863 437.18 409.166C438.655 409.299 440.056 409.876 441.197 410.822C441.541 411.089 441.789 411.461 441.903 411.881C441.939 412.309 441.818 412.736 441.562 413.082C441.306 413.427 440.933 413.667 440.513 413.757C439.671 413.955 438.794 413.955 437.952 413.757C436.153 413.389 434.332 413.131 432.501 412.985C431.815 412.896 431.118 412.941 430.448 413.117C429.659 413.558 429.024 414.23 428.63 415.043C428.235 415.856 428.099 416.771 428.241 417.664C428.225 418.033 428.285 418.403 428.418 418.748C428.551 419.094 428.754 419.408 429.014 419.672C429.919 420.378 431.221 419.871 432.28 419.429C434.128 418.657 436.104 418.237 438.107 418.193C438.333 418.174 438.561 418.212 438.769 418.304C438.881 418.382 438.975 418.482 439.045 418.599C439.116 418.716 439.161 418.846 439.177 418.982C439.194 419.117 439.182 419.254 439.142 419.385C439.102 419.515 439.035 419.635 438.946 419.738C438.573 420.153 438.079 420.44 437.533 420.555C436.018 421.035 434.469 421.396 432.898 421.636C431.993 421.769 430.934 421.967 430.492 422.784C430.321 423.142 430.238 423.535 430.25 423.932C430.161 426.926 431.027 429.871 432.722 432.341C432.997 432.788 433.357 433.178 433.781 433.488C434.388 433.81 435.059 433.991 435.745 434.018C440.998 434.561 446.304 433.803 451.195 431.811C451.449 431.723 451.672 431.562 451.835 431.347C452.122 430.84 451.636 430.244 451.261 429.802C449.628 427.794 450.003 424.903 450.467 422.365C450.504 421.871 450.706 421.405 451.04 421.04C451.349 420.832 451.726 420.748 452.094 420.805C452.462 420.863 452.796 421.057 453.027 421.349C453.472 421.952 453.726 422.675 453.755 423.424C454.081 426.036 453.871 428.687 453.137 431.215C455.679 430.623 458.155 429.78 460.531 428.699C462.452 427.953 464.264 426.951 465.916 425.719C467.576 424.467 468.74 422.67 469.205 420.643C469.303 420.267 469.264 419.868 469.094 419.518C468.923 419.276 468.696 419.079 468.432 418.944C466.131 417.455 464.319 415.321 463.223 412.808C463.003 412.278 462.892 411.55 463.378 411.285C463.586 411.219 463.81 411.219 464.018 411.285C466.799 411.749 468.211 414.861 470.507 416.516C470.688 416.667 470.912 416.759 471.147 416.781C471.288 416.781 471.428 416.751 471.557 416.694C471.686 416.637 471.802 416.554 471.897 416.45C472.82 415.592 473.446 414.464 473.685 413.227C474.352 410.799 474.212 408.22 473.288 405.878C472.812 404.719 472.081 403.682 471.148 402.845C470.216 402.008 469.106 401.392 467.902 401.044C466.774 400.784 465.607 400.731 464.459 400.89C464.062 400.89 461.943 401.64 461.656 401.375C461.369 401.11 462.495 399.521 462.76 398.992C464.195 395.725 462.274 391.532 459.604 389.766Z" fill="#191B1D"/>
<path d="M492.949 369.792C491.217 369.777 489.507 370.185 487.969 370.981C486.43 371.778 485.109 372.937 484.121 374.36C482.784 376.668 482.241 379.351 482.576 381.997C482.92 384.612 483.557 387.181 484.474 389.655C485.327 388.123 486.541 386.822 488.01 385.865C489.479 384.907 491.159 384.322 492.905 384.16C496.503 383.851 492.309 387.316 491.691 388.044C489.661 390.428 487.718 392.878 485.798 395.35C485.236 395.968 484.861 396.733 484.717 397.557C484.71 398.445 484.972 399.314 485.467 400.051C486.962 403.36 489.233 406.26 492.088 408.504C492.475 408.843 492.949 409.066 493.456 409.148C493.964 409.23 494.484 409.167 494.958 408.967C495.404 408.593 495.739 408.105 495.929 407.555C496.985 405.336 498.361 403.283 500.012 401.463C500.409 401 501.049 400.536 501.557 400.867C502.064 401.198 501.976 401.706 501.932 402.192L501.468 407.113C501.16 408.886 501.266 410.707 501.777 412.432C502.947 415.566 506.479 417.133 509.767 417.751C510.663 417.994 511.608 417.994 512.504 417.751C514.269 417.133 514.998 415.037 515.307 413.183C515.655 410.755 516.654 408.467 518.198 406.562C518.6 409.769 519.627 412.865 521.222 415.677C522.021 417.19 523.126 418.52 524.466 419.583C525.893 420.597 527.53 421.276 529.256 421.57C532.167 422.094 535.132 422.257 538.084 422.055C540.126 422.079 542.161 421.819 544.131 421.283C546.117 420.727 547.819 419.442 548.899 417.685C550.642 414.551 549.296 410.512 547.045 407.731C544.793 404.95 541.748 402.876 539.408 400.161C542.328 400.964 545.044 402.378 547.376 404.31C547.651 404.626 547.99 404.88 548.37 405.055C548.751 405.23 549.164 405.322 549.583 405.326C549.971 405.241 550.326 405.041 550.598 404.752C554.085 401.265 550.068 395.372 548.214 392.238C547.228 390.008 545.473 388.206 543.271 387.161C541.967 386.831 540.601 386.831 539.298 387.161C537.311 387.492 527.468 391.973 531.661 386.08C532.79 384.774 534.196 383.738 535.777 383.047C537.358 382.356 539.074 382.027 540.799 382.085C542.498 382.24 545.08 383.608 545.036 380.43C544.917 379.291 544.473 378.211 543.756 377.318C542.392 375.275 540.918 373.308 539.342 371.425C538.949 370.848 538.361 370.432 537.687 370.255C537.1 370.234 536.522 370.396 536.031 370.719C532.006 373.157 527.559 374.819 522.921 375.618C521.862 375.618 520.383 375.287 520.56 374.25C520.665 373.872 520.909 373.549 521.244 373.345C524.047 371.138 528.24 372.087 531.11 370.056C531.536 369.785 531.898 369.423 532.169 368.995C532.44 368.568 532.613 368.086 532.677 367.585C532.677 366.106 531.463 364.936 530.271 364.031C527.292 361.445 523.642 359.754 519.743 359.153C513.938 358.69 508.708 362.508 504.801 366.856C503.499 368.335 502.594 372.175 500.586 371.932C499.319 371.485 498.081 370.962 496.878 370.365C495.607 369.969 494.281 369.775 492.949 369.792Z" fill="#191B1D"/>
<path d="M464.83 339.247C464.582 337.012 463.559 334.935 461.939 333.376C458.982 330.683 454.545 330.551 450.595 331.169C447.633 331.801 444.726 332.665 441.899 333.751C439.052 334.568 438.213 335.208 440.751 337.525C442.539 339.137 447.372 344.897 445.165 347.656C442.958 350.415 439.25 343.374 437.816 342.204C435.943 340.377 433.456 339.315 430.841 339.225C428.552 339.616 426.449 340.73 424.838 342.403C423.118 343.924 421.483 345.538 419.938 347.237C419.688 347.479 419.492 347.773 419.365 348.097C419.011 349.377 420.755 350.128 422.057 350.304C425.787 350.989 429.958 352.931 430.709 356.639C426.869 357.588 423.249 353.703 419.32 354.123C417.894 354.466 416.574 355.155 415.478 356.128C414.381 357.102 413.54 358.331 413.03 359.706C411.97 362.189 411.641 364.923 412.081 367.586C415.397 366.435 418.948 366.132 422.41 366.703C422.842 366.728 423.249 366.908 423.558 367.211C423.716 367.507 423.751 367.853 423.656 368.175C423.561 368.497 423.344 368.769 423.05 368.932C422.45 369.232 421.774 369.347 421.108 369.263H414.708C414.081 369.196 413.451 369.344 412.92 369.682C412.488 370.128 412.237 370.718 412.214 371.338C411.8 374.264 411.763 377.231 412.103 380.166C412.155 381.989 412.869 383.731 414.112 385.066C415.11 385.82 416.276 386.32 417.511 386.522C420.743 387.299 424.052 387.713 427.376 387.758C426.648 386.738 426.177 385.557 426.004 384.316C425.831 383.075 425.961 381.81 426.383 380.63C427.707 377.54 429.959 379.327 430.069 382.13C430.069 383.455 429.826 384.757 429.782 386.081C429.759 386.331 429.805 386.583 429.914 386.809C430.048 386.982 430.223 387.118 430.422 387.207C432.177 388.155 434.22 388.422 436.16 387.957C436.714 387.849 437.235 387.614 437.683 387.273C438.188 386.67 438.537 385.952 438.699 385.182C438.861 384.412 438.83 383.614 438.61 382.859L437.705 374.891C437.656 374.706 437.65 374.512 437.688 374.324C437.727 374.137 437.808 373.961 437.926 373.81C438.323 373.412 439.03 373.81 439.449 374.119C440.261 374.841 440.898 375.74 441.311 376.746C441.725 377.751 441.903 378.838 441.833 379.923C441.833 381.181 441.303 382.395 441.215 383.631C441.125 384.254 441.2 384.89 441.432 385.474C441.664 386.059 442.046 386.573 442.539 386.964C443.066 387.217 443.637 387.363 444.221 387.393C444.804 387.423 445.388 387.337 445.938 387.14C447.415 386.925 448.776 386.218 449.8 385.132C450.235 384.443 450.524 383.673 450.649 382.868C450.774 382.063 450.733 381.241 450.528 380.453C450.088 378.885 449.778 377.283 449.601 375.664C449.601 372.397 452.956 367.718 453.508 373.457C453.529 375.331 453.419 377.204 453.177 379.063C453.122 379.302 453.122 379.551 453.177 379.791C453.323 379.984 453.514 380.14 453.733 380.244C453.952 380.347 454.193 380.396 454.435 380.387C457.031 380.614 459.638 380.109 461.961 378.93C463.563 378.152 464.967 377.02 466.066 375.62C466.882 374.469 467.571 373.233 468.119 371.934C470.789 366.262 475.049 361.825 470.083 355.756C468.384 353.681 465.228 353.129 463.639 351.011C461.763 348.495 464.654 344.5 464.764 341.344C464.841 340.647 464.863 339.946 464.83 339.247Z" fill="#191B1D"/>
<path d="M448.92 447.614H505.2L500.786 489.858C500.469 492.96 499.011 495.834 496.694 497.922C494.378 500.01 491.369 501.163 488.25 501.158H465.76C462.645 501.158 459.641 500.002 457.33 497.915C455.018 495.827 453.563 492.956 453.246 489.858L448.92 447.614Z" fill="white"/>
<path d="M488.337 502.327H465.758C462.356 502.333 459.073 501.073 456.548 498.793C454.023 496.513 452.436 493.375 452.097 489.989L447.683 447.746C447.661 447.432 447.764 447.123 447.969 446.885C448.078 446.765 448.211 446.67 448.36 446.605C448.508 446.541 448.668 446.508 448.83 446.51H505.111C505.269 446.507 505.427 446.539 505.572 446.604C505.717 446.669 505.846 446.765 505.949 446.885C506.059 446.998 506.142 447.133 506.192 447.283C506.242 447.432 506.257 447.59 506.236 447.746L501.822 489.989C501.49 493.346 499.93 496.463 497.441 498.74C494.952 501.017 491.71 502.294 488.337 502.327ZM450.177 448.783L454.37 489.769C454.655 492.59 455.978 495.205 458.082 497.106C460.187 499.006 462.923 500.057 465.758 500.054H488.337C491.173 500.057 493.908 499.006 496.013 497.106C498.118 495.205 499.441 492.59 499.725 489.769L503.941 448.783H450.177Z" fill="#191B1D"/>
<path d="M484.873 448.385C484.873 447.988 480.459 407.554 500.323 374.978L502.221 376.125C482.776 408.04 487.102 447.723 487.146 448.12L484.873 448.385Z" fill="#191B1D"/>
<path d="M433.756 371.69C433.477 371.683 433.209 371.573 433.006 371.381C432.903 371.278 432.821 371.156 432.765 371.021C432.709 370.887 432.68 370.743 432.68 370.597C432.68 370.451 432.709 370.307 432.765 370.173C432.821 370.038 432.903 369.916 433.006 369.814C444.527 357.675 462.669 350.281 463.442 349.95C463.714 349.842 464.018 349.846 464.287 349.962C464.556 350.078 464.768 350.296 464.876 350.568C464.985 350.84 464.98 351.144 464.864 351.413C464.749 351.682 464.531 351.894 464.258 352.002C464.082 352.002 445.785 359.506 434.595 371.314C434.491 371.433 434.361 371.529 434.217 371.593C434.072 371.658 433.915 371.691 433.756 371.69Z" fill="white"/>
<path d="M441.525 427.926C441.337 427.924 441.152 427.875 440.988 427.781C440.824 427.688 440.686 427.554 440.589 427.392C440.492 427.23 440.437 427.047 440.431 426.858C440.425 426.669 440.468 426.482 440.554 426.315C444.741 418.452 450.049 411.24 456.313 404.906C456.414 404.803 456.534 404.722 456.666 404.666C456.799 404.61 456.941 404.582 457.085 404.582C457.229 404.582 457.372 404.61 457.504 404.666C457.637 404.722 457.757 404.803 457.858 404.906C458.06 405.112 458.173 405.39 458.173 405.679C458.173 405.967 458.06 406.245 457.858 406.451C451.776 412.631 446.617 419.655 442.541 427.308C442.446 427.495 442.301 427.653 442.121 427.762C441.942 427.871 441.736 427.928 441.525 427.926Z" fill="white"/>
<path d="M535.371 412.3C535.189 412.299 535.01 412.254 534.849 412.17C534.688 412.085 534.549 411.964 534.444 411.815C533.914 410.998 521.201 391.951 506.127 380.695C505.893 380.52 505.738 380.258 505.697 379.968C505.655 379.679 505.731 379.384 505.906 379.15C506.085 378.921 506.346 378.77 506.634 378.729C506.922 378.687 507.215 378.759 507.451 378.929C522.504 390.296 534.907 408.548 536.276 410.579C536.435 410.822 536.492 411.119 536.435 411.404C536.377 411.689 536.209 411.94 535.967 412.102C535.794 412.229 535.585 412.299 535.371 412.3Z" fill="white"/>
<path d="M529.523 28.9307H395.531V122.996H529.523V28.9307Z" fill="white"/>
<path d="M529.5 124.099H395.53C395.238 124.099 394.957 123.983 394.75 123.776C394.543 123.569 394.427 123.288 394.427 122.995V28.9297C394.427 28.637 394.543 28.3563 394.75 28.1494C394.957 27.9424 395.238 27.8262 395.53 27.8262H529.5C529.793 27.8262 530.073 27.9424 530.28 28.1494C530.487 28.3563 530.603 28.637 530.603 28.9297V122.995C530.603 123.288 530.487 123.569 530.28 123.776C530.073 123.983 529.793 124.099 529.5 124.099ZM396.634 121.892H528.396V30.0332H396.634V121.892Z" fill="#D1D3D4"/>
<path d="M482.002 212.295C481.738 212.294 481.484 212.201 481.282 212.032C481.08 211.862 480.945 211.627 480.898 211.368L475.469 176.143L465.978 180.337C465.845 180.395 465.702 180.427 465.556 180.429C465.411 180.432 465.266 180.406 465.131 180.353C464.995 180.3 464.872 180.22 464.767 180.119C464.663 180.017 464.579 179.897 464.522 179.763C464.464 179.631 464.432 179.489 464.43 179.345C464.427 179.202 464.454 179.059 464.507 178.925C464.56 178.791 464.64 178.67 464.741 178.567C464.842 178.465 464.963 178.384 465.095 178.328L475.932 173.649C476.083 173.574 476.249 173.534 476.418 173.534C476.586 173.534 476.753 173.574 476.903 173.649C477.053 173.73 477.182 173.843 477.281 173.981C477.381 174.118 477.448 174.277 477.477 174.444L483.127 210.971C483.152 211.115 483.148 211.262 483.115 211.404C483.081 211.547 483.019 211.68 482.932 211.798C482.846 211.916 482.736 212.014 482.61 212.088C482.485 212.162 482.345 212.21 482.2 212.229L482.002 212.295Z" fill="#191B1D"/>
<path d="M500.719 250.103H473.087L471.586 190.622H502.22L500.719 250.103Z" fill="white"/>
<path d="M500.718 251.184H473.085C472.8 251.184 472.526 251.074 472.32 250.876C472.115 250.679 471.993 250.409 471.982 250.124L470.393 190.666C470.388 190.371 470.499 190.085 470.702 189.871C470.91 189.654 471.195 189.527 471.496 189.518H502.131C502.425 189.535 502.703 189.662 502.908 189.875C503.112 190.088 503.229 190.37 503.234 190.666L501.733 250.257C501.694 250.503 501.572 250.729 501.388 250.898C501.203 251.066 500.967 251.167 500.718 251.184ZM474.233 248.977H499.703L501.137 191.703H472.71L474.233 248.977Z" fill="#191B1D"/>
<path d="M505.023 184.596H468.783V190.621H505.023V184.596Z" fill="white"/>
<path d="M505.022 191.724H468.782C468.49 191.724 468.209 191.607 468.002 191.4C467.795 191.193 467.679 190.913 467.679 190.62V184.595C467.679 184.302 467.795 184.021 468.002 183.814C468.209 183.607 468.49 183.491 468.782 183.491H505.022C505.315 183.491 505.596 183.607 505.803 183.814C506.01 184.021 506.126 184.302 506.126 184.595V190.62C506.126 190.913 506.01 191.193 505.803 191.4C505.596 191.607 505.315 191.724 505.022 191.724ZM469.886 189.517H503.919V185.698H469.886V189.517Z" fill="#191B1D"/>
<path d="M487.5 230.017C484.844 230.243 482.182 229.663 479.862 228.353C477.541 227.042 475.67 225.062 474.493 222.67C473.316 220.279 472.888 217.589 473.265 214.95C473.641 212.312 474.805 209.849 476.604 207.883C478.404 205.916 480.754 204.539 483.349 203.93C485.943 203.321 488.661 203.509 491.147 204.47C493.633 205.43 495.771 207.118 497.282 209.314C498.794 211.509 499.607 214.109 499.617 216.774C499.76 220.136 498.566 223.417 496.295 225.899C494.023 228.381 490.861 229.862 487.5 230.017ZM487.5 205.849C485.283 205.622 483.05 206.071 481.093 207.137C479.137 208.204 477.549 209.837 476.539 211.823C475.528 213.809 475.143 216.054 475.433 218.263C475.723 220.473 476.675 222.542 478.164 224.2C479.652 225.858 481.608 227.026 483.774 227.551C485.939 228.077 488.213 227.934 490.295 227.142C492.378 226.351 494.172 224.947 495.442 223.116C496.712 221.285 497.398 219.113 497.41 216.885C497.554 214.108 496.592 211.388 494.735 209.319C492.877 207.251 490.276 206.003 487.5 205.849Z" fill="#D1D3D4"/>
<path d="M434.858 104.368C432.153 104.351 429.468 103.889 426.913 102.999C423.572 101.949 420.341 100.574 417.268 98.8943C416.518 98.475 415.789 97.9894 415.061 97.5039C413.218 96.3121 411.638 94.7553 410.419 92.9294C409.201 91.1036 408.369 89.0474 407.976 86.8878C407.691 85.3025 407.955 83.6671 408.727 82.2529C409.95 80.5761 411.638 79.2946 413.582 78.5671C414.874 78.0323 416.067 77.2865 417.114 76.36C419.321 73.9985 418.46 70.5554 417.577 66.9138C417.334 65.9868 417.114 65.0819 416.937 64.199C416.381 61.3779 416.469 58.4677 417.195 55.6855C417.921 52.9033 419.267 50.321 421.13 48.1315C423.17 45.854 425.718 44.0895 428.567 42.9813C431.416 41.873 434.487 41.4522 437.529 41.7531C446.092 42.7242 452.846 46.8514 456.069 53.0533C457.477 55.9501 458.133 59.1554 457.975 62.3728C457.817 65.5901 456.85 68.7157 455.164 71.4603C453.97 73.1427 453.295 75.1374 453.221 77.1987C453.671 79.0171 454.628 80.6703 455.98 81.966C457.551 83.5626 458.664 85.5522 459.203 87.7265C459.732 91.3461 457.349 94.8112 451.919 98.3205C446.953 101.974 441.017 104.078 434.858 104.368ZM418.372 96.9521C421.316 98.5709 424.414 99.8942 427.619 100.903C436.933 104.081 444.239 100.616 450.749 96.4886C455.384 93.4649 457.371 90.7281 457.04 88.0575C456.547 86.2877 455.604 84.6757 454.303 83.3786C452.668 81.756 451.541 79.6933 451.058 77.4415C451.029 74.9847 451.762 72.5792 453.155 70.5554C454.696 68.1128 455.593 65.3198 455.762 62.437C455.932 59.5541 455.369 56.6752 454.126 54.0686C451.257 48.5288 445.121 44.843 437.308 43.9381C434.617 43.6696 431.9 44.0416 429.38 45.0236C426.86 46.0055 424.608 47.5696 422.808 49.5882C421.168 51.5253 419.984 53.8068 419.346 56.2636C418.708 58.7203 418.632 61.2892 419.122 63.7797C419.299 64.6184 419.519 65.5012 419.74 66.384C420.689 70.2464 421.771 74.6385 418.747 77.8609C417.528 79.0116 416.116 79.938 414.575 80.5976C413.026 81.1611 411.665 82.1474 410.647 83.4448C410.133 84.4357 409.97 85.5715 410.183 86.6671C410.552 88.522 411.292 90.2834 412.357 91.8458C413.423 93.4083 414.793 94.7396 416.385 95.7603C417.025 96.2273 417.688 96.6619 418.372 97.0624V96.9521Z" fill="#D1D3D4"/>
<path d="M494.957 103.728C489.294 103.651 483.697 102.49 478.471 100.307L477.367 99.8652C475.066 98.5494 472.441 97.9055 469.792 98.007C467.143 98.1084 464.575 98.951 462.381 100.439C459.967 101.685 457.377 102.556 454.7 103.021C451.708 103.284 448.698 102.795 445.943 101.6C443.187 100.406 440.773 98.5424 438.92 96.1794C435.72 92.6051 433.62 88.1831 432.872 83.4446C432.425 80.5934 432.902 77.674 434.232 75.1128C435.562 72.5516 437.676 70.4829 440.266 69.2089C445.386 67.0018 450.838 68.5247 456.135 70.0255C459.933 71.3843 463.957 71.9987 467.987 71.8353C471.078 71.3177 474.062 70.2883 476.815 68.7896C478.62 67.8912 480.477 67.1025 482.377 66.428C491.205 63.4926 508.266 66.428 514.976 73.7996C516.786 75.6948 518.073 78.0273 518.711 80.569C519.349 83.1108 519.317 85.7747 518.617 88.3001C517.615 91.6023 515.823 94.6104 513.396 97.064C510.97 99.5176 507.982 101.343 504.691 102.381C501.537 103.339 498.252 103.794 494.957 103.728ZM470.525 95.7821H471.055C473.545 96.0278 475.972 96.7075 478.228 97.7906L479.287 98.232C487.001 101.716 495.69 102.395 503.852 100.152C506.792 99.2332 509.464 97.6143 511.64 95.4345C513.816 93.2548 515.43 90.5793 516.344 87.638C516.938 85.4638 516.96 83.1728 516.407 80.9877C515.854 78.8027 514.745 76.7978 513.188 75.168C507.141 68.5468 491.007 65.6997 482.929 68.4144C481.112 69.0403 479.336 69.7773 477.61 70.6215C474.674 72.2464 471.49 73.3726 468.186 73.9541C463.865 74.1467 459.548 73.5022 455.473 72.056C450.352 70.5994 445.497 69.2089 441.105 71.1511C438.972 72.2542 437.241 74.0021 436.159 76.146C435.077 78.2898 434.7 80.7203 435.079 83.0914C435.791 87.427 437.737 91.4654 440.685 94.7227C443.025 97.3492 447.925 101.675 454.546 100.836C456.992 100.386 459.357 99.5756 461.564 98.4306C464.326 96.9139 467.382 96.0106 470.525 95.7821Z" fill="#D1D3D4"/>
<path d="M491.824 87.1976C490.353 87.2909 488.881 87.0426 487.521 86.4721C486.162 85.9016 484.953 85.0244 483.989 83.9091C482.914 82.8345 481.678 81.9336 480.326 81.2385C478.707 80.4739 476.966 80.0031 475.183 79.8481C473.596 79.8039 472.035 79.4276 470.602 78.7433C469.169 78.059 467.895 77.0821 466.862 75.8753C465.712 74.383 464.898 72.6599 464.475 70.8239C464.053 68.9879 464.031 67.0823 464.413 65.2372C464.879 62.8187 465.847 60.5247 467.254 58.5025C468.66 56.4804 470.474 54.7748 472.579 53.4956C484.21 46.6536 505.795 53.7825 512.836 63.8909C515.33 67.4664 518.177 74.5511 509.305 81.7241C504.641 85.1829 499.02 87.1106 493.215 87.2418L491.824 87.1976ZM483.879 52.8996C480.337 52.7835 476.827 53.6059 473.704 55.2833C471.873 56.403 470.296 57.892 469.072 59.6552C467.849 61.4184 467.006 63.4171 466.598 65.5241C466.267 67.053 466.275 68.6358 466.622 70.1611C466.969 71.6864 467.647 73.117 468.606 74.3524C469.465 75.3377 470.522 76.1303 471.709 76.678C472.896 77.2258 474.185 77.5163 475.492 77.5306C479.322 77.7679 482.912 79.476 485.512 82.2979C486.424 83.3727 487.607 84.1834 488.939 84.6453C490.27 85.1073 491.701 85.2036 493.083 84.9243C498.415 84.7707 503.58 83.026 507.914 79.9143C513.542 75.3456 514.535 70.2031 511.026 65.0606C506.303 58.2628 494.164 52.8996 483.879 52.8996Z" fill="#D1D3D4"/>
<path d="M155.005 79.1643C155.005 79.1643 162.134 73.3818 155.005 65.9219H143.506C143.506 65.9219 145.978 75.5668 143.506 79.1643H155.005Z" fill="#191B1D"/>
<path d="M155.003 80.2664H143.504C143.301 80.264 143.101 80.2076 142.927 80.1029C142.752 79.9982 142.609 79.8489 142.511 79.6705C142.408 79.4967 142.354 79.2985 142.354 79.0966C142.354 78.8947 142.408 78.6965 142.511 78.5228C144.299 75.9405 142.997 68.7675 142.334 66.2293C142.3 66.0625 142.3 65.8903 142.334 65.7234C142.368 65.5565 142.436 65.3982 142.533 65.2582C142.639 65.1265 142.774 65.0203 142.927 64.9477C143.079 64.8751 143.247 64.8379 143.416 64.8389H154.915C155.211 64.8485 155.494 64.9662 155.709 65.17C156.822 66.1841 157.709 67.4222 158.31 68.8029C158.911 70.1837 159.213 71.6759 159.197 73.1816C158.918 75.834 157.64 78.2807 155.621 80.0236C155.444 80.1648 155.229 80.2494 155.003 80.2664ZM145.226 78.0593H154.562C155.944 76.7241 156.805 74.9399 156.989 73.0271C156.994 71.9101 156.772 70.8038 156.335 69.7756C155.899 68.7473 155.258 67.8186 154.451 67.046H144.828C145.759 70.6447 145.894 74.4029 145.226 78.0593Z" fill="#191B1D"/>
<path d="M148.758 74.7932C148.925 73.5062 148.787 72.1979 148.353 70.9746C147.92 69.7514 147.204 68.6475 146.264 67.7526C145.421 66.6557 144.451 65.6629 143.373 64.7951C141.303 63.4493 138.984 62.5336 136.553 62.1025C131.19 60.8003 124.922 62.4556 119.448 62.566C113.569 62.6775 107.728 61.5963 102.277 59.3878C100.405 58.7553 98.7254 57.6535 97.3997 56.1875C96.0313 64.1992 96.2079 73.0275 100.821 79.7591C104.729 84.8405 110.132 88.5687 116.27 90.4193C120.351 92.0653 124.795 92.5996 129.149 91.9676C133.503 91.3356 137.612 89.5599 141.056 86.8217C144.203 84.4453 146.632 81.2448 148.074 77.5741C148.394 76.6721 148.623 75.7406 148.758 74.7932Z" fill="white"/>
<path d="M125.828 93.2884C122.407 93.2544 119.018 92.6348 115.807 91.4565C109.464 89.5392 103.883 85.6794 99.8503 80.4211C95.723 74.3958 94.5312 66.2075 96.2748 56.1432C96.3135 55.9339 96.4108 55.7399 96.5553 55.5836C96.6999 55.4274 96.8858 55.3153 97.0914 55.2604C97.2973 55.2089 97.5138 55.219 97.714 55.2897C97.9142 55.3603 98.0891 55.4883 98.217 55.6577C99.429 56.9638 100.946 57.9495 102.631 58.5269C108 60.5827 113.725 61.5506 119.471 61.374C121.281 61.374 123.157 61.1312 125.143 60.9105C129.021 60.2368 132.985 60.2368 136.863 60.9105C139.445 61.369 141.907 62.345 144.102 63.7797C145.228 64.7177 146.256 65.7678 147.17 66.9138C148.211 67.9298 148.999 69.1761 149.471 70.5523C149.942 71.9285 150.084 73.3962 149.885 74.8372C149.719 75.8638 149.446 76.87 149.068 77.8388C147.545 81.6953 144.996 85.0614 141.696 87.572C137.213 91.2308 131.614 93.2476 125.828 93.2884ZM98.1288 58.4386C96.9811 67.0462 98.1288 73.8881 101.682 79.1189C105.438 84.0192 110.643 87.6104 116.558 89.3818C120.467 90.9531 124.722 91.4642 128.892 90.8635C133.062 90.2628 136.999 88.5716 140.306 85.9609C143.28 83.6801 145.57 80.6262 146.927 77.1325C147.253 76.305 147.497 75.4475 147.656 74.5723C147.797 73.4414 147.671 72.2931 147.287 71.2198C146.904 70.1465 146.274 69.1781 145.449 68.3925C144.63 67.4307 143.713 66.5578 142.712 65.7882C140.755 64.5432 138.573 63.6957 136.289 63.2942C132.637 62.6662 128.905 62.6662 125.254 63.2942C123.312 63.4928 121.281 63.7135 119.383 63.7577C113.341 63.8546 107.339 62.7518 101.726 60.5133C100.449 59.9677 99.2409 59.2712 98.1288 58.4386Z" fill="#191B1D"/>
<path d="M378.712 17.2554H284.999V79.1418H378.712V17.2554Z" fill="white"/>
<path d="M378.711 80.2676H284.998C284.705 80.2676 284.425 80.1513 284.218 79.9443C284.011 79.7374 283.895 79.4567 283.895 79.164V17.2334C283.895 16.9407 284.011 16.6601 284.218 16.4531C284.425 16.2461 284.705 16.1299 284.998 16.1299H378.711C379.002 16.1355 379.279 16.2536 379.485 16.4594C379.69 16.6651 379.809 16.9425 379.814 17.2334V79.164C379.809 79.4549 379.69 79.7324 379.485 79.9381C379.279 80.1438 379.002 80.2619 378.711 80.2676ZM286.013 78.0605H377.695V18.359H286.102L286.013 78.0605Z" fill="#D1D3D4"/>
<path d="M378.712 79.1641H284.999V91.4134H378.712V79.1641Z" fill="white"/>
<path d="M378.711 92.5159H284.998C284.705 92.5159 284.425 92.3997 284.218 92.1927C284.011 91.9858 283.895 91.7051 283.895 91.4124V79.1631C283.895 78.8704 284.011 78.5897 284.218 78.3828C284.425 78.1758 284.705 78.0596 284.998 78.0596H378.711C379.003 78.0596 379.284 78.1758 379.491 78.3828C379.698 78.5897 379.814 78.8704 379.814 79.1631V91.4124C379.814 91.7051 379.698 91.9858 379.491 92.1927C379.284 92.3997 379.003 92.5159 378.711 92.5159ZM286.013 90.3089H377.695V80.2666H286.102L286.013 90.3089Z" fill="#D1D3D4"/>
<path d="M295.726 64.7509C295.515 64.7591 295.306 64.7057 295.126 64.597C294.945 64.4884 294.8 64.3293 294.709 64.1394C294.617 63.9494 294.583 63.7369 294.611 63.5279C294.639 63.319 294.727 63.1226 294.865 62.9631C295.924 61.6389 321.35 30.4529 345.054 32.3289C354.5 33.0793 360.945 38.0232 362.313 45.5714C362.93 48.8029 362.462 52.1479 360.981 55.0857C359.5 58.0235 357.09 60.3895 354.125 61.8154C347.504 64.8833 341.368 64.8391 337.086 61.683C335.229 60.2002 333.82 58.2303 333.017 55.9932C332.214 53.7561 332.049 51.34 332.54 49.0144C332.628 47.0066 333.341 45.0764 334.579 43.4936C335.818 41.9108 337.52 40.7544 339.448 40.1861C341.445 39.6595 343.548 39.6787 345.535 40.2416C347.523 40.8045 349.323 41.8905 350.748 43.3864C351.403 44.1079 351.823 45.0113 351.953 45.9768C352.083 46.9423 351.917 47.9246 351.476 48.7937C349.799 52.0381 347.813 53.7376 345.561 53.8258C341.964 53.8258 339.315 49.7427 339.205 49.5662C339.129 49.4417 339.078 49.3035 339.056 49.1593C339.034 49.0152 339.04 48.8681 339.075 48.7265C339.11 48.5849 339.172 48.4516 339.259 48.3343C339.346 48.217 339.455 48.1181 339.58 48.0433C339.703 47.9677 339.839 47.9174 339.982 47.8954C340.124 47.8734 340.27 47.88 340.41 47.915C340.549 47.9499 340.681 48.0125 340.796 48.0989C340.911 48.1854 341.008 48.2941 341.081 48.4185C341.655 49.3234 343.487 51.7291 345.495 51.6188C347.504 51.5084 348.629 49.4117 349.512 47.7784C349.756 47.2903 349.84 46.738 349.753 46.1994C349.666 45.6608 349.412 45.1632 349.026 44.7768C347.879 43.6105 346.445 42.7677 344.867 42.3337C343.29 41.8996 341.626 41.8897 340.044 42.3049C338.538 42.7697 337.215 43.6944 336.261 44.9491C335.307 46.2039 334.77 47.7258 334.725 49.3013C334.301 51.23 334.419 53.2383 335.065 55.1041C335.712 56.9699 336.862 58.6204 338.388 59.8732C341.986 62.5438 347.393 62.5217 353.198 59.8732C355.725 58.6378 357.769 56.5964 359.008 54.0708C360.247 51.5452 360.61 48.6792 360.04 45.9245C358.87 39.4578 353.176 35.1981 344.789 34.536C322.343 32.682 296.829 64.0225 296.586 64.3536C296.48 64.4784 296.348 64.5787 296.2 64.6473C296.051 64.7159 295.889 64.7512 295.726 64.7509Z" fill="#D1D3D4"/>
<path d="M332.318 136.702H296.21C295.917 136.702 295.637 136.586 295.43 136.379C295.223 136.172 295.106 135.891 295.106 135.599V106.907C295.106 106.614 295.223 106.333 295.43 106.126C295.637 105.919 295.917 105.803 296.21 105.803H332.318C332.61 105.803 332.891 105.919 333.098 106.126C333.305 106.333 333.421 106.614 333.421 106.907V135.599C333.421 135.891 333.305 136.172 333.098 136.379C332.891 136.586 332.61 136.702 332.318 136.702ZM297.314 134.495H331.214V108.01H297.314V134.495Z" fill="#D1D3D4"/>
<path d="M314.264 112.137C313.971 112.137 313.69 112.021 313.483 111.814C313.276 111.607 313.16 111.326 313.16 111.033V104.169C313.16 103.877 313.276 103.596 313.483 103.389C313.69 103.182 313.971 103.066 314.264 103.066C314.556 103.066 314.837 103.182 315.044 103.389C315.251 103.596 315.367 103.877 315.367 104.169V110.989C315.373 111.138 315.349 111.286 315.296 111.425C315.243 111.564 315.163 111.691 315.06 111.798C314.957 111.906 314.833 111.991 314.696 112.049C314.56 112.107 314.412 112.137 314.264 112.137Z" fill="#D1D3D4"/>
</svg>
