<svg width="500" height="435" viewBox="0 0 500 435" fill="none" xmlns="http://www.w3.org/2000/svg">
<path d="M264.817 349.553L247.518 363.883C247.518 363.883 284.177 429.072 289.504 419.401C292.085 414.724 286.108 382.277 286.108 382.277" fill="white"/>
<path d="M287.985 421.313C279.019 421.313 249.989 370.175 246.722 364.347C246.617 364.158 246.58 363.939 246.618 363.726C246.655 363.513 246.763 363.32 246.926 363.177L264.225 348.755C264.319 348.677 264.428 348.618 264.544 348.582C264.661 348.546 264.783 348.533 264.905 348.544C265.026 348.555 265.144 348.59 265.252 348.647C265.36 348.704 265.456 348.781 265.534 348.875C265.612 348.969 265.671 349.077 265.707 349.194C265.743 349.311 265.756 349.433 265.745 349.555C265.734 349.676 265.698 349.794 265.642 349.902C265.585 350.01 265.507 350.106 265.413 350.184L248.708 364.105C260.959 385.804 282.119 419.457 287.985 419.457C288.138 419.45 288.286 419.399 288.411 419.31C288.536 419.221 288.633 419.098 288.69 418.956C290.546 415.744 287.576 395.382 285.2 382.481C285.157 382.24 285.211 381.992 285.35 381.79C285.489 381.589 285.702 381.45 285.943 381.405C286.186 381.366 286.434 381.421 286.638 381.559C286.841 381.697 286.984 381.907 287.038 382.147C287.65 385.507 292.978 415.02 290.323 419.846C290.112 420.287 289.781 420.659 289.367 420.919C288.953 421.178 288.473 421.315 287.985 421.313Z" fill="#191B1D"/>
<path d="M457.677 256.837L428.35 244.642L467.664 150.162C471.376 141.067 487.952 126.793 493.65 129.15C499.349 131.507 500.815 153.28 497.028 162.376L457.677 256.837Z" fill="white"/>
<path d="M457.674 257.765C457.558 257.791 457.438 257.791 457.322 257.765L427.994 245.57C427.768 245.474 427.589 245.294 427.493 245.069C427.401 244.836 427.401 244.577 427.493 244.345L466.807 149.884C470.519 141.104 487.225 125.586 493.963 128.37C500.701 131.155 501.499 154.023 497.842 162.803L458.547 257.264C458.465 257.422 458.339 257.554 458.184 257.643C458.03 257.732 457.853 257.774 457.674 257.765ZM429.553 244.141L457.266 255.63L496.246 162.023C499.958 152.946 498.102 132.009 493.369 130.022C488.636 128.036 472.412 141.438 468.626 150.44L429.553 244.141Z" fill="#191B1D"/>
<path d="M454.18 255.339L432.621 246.37L430.667 251.065L452.227 260.035L454.18 255.339Z" fill="white"/>
<path d="M452.219 260.995C452.096 261.021 451.97 261.021 451.847 260.995L430.297 252.029C430.183 251.983 430.08 251.914 429.992 251.827C429.905 251.739 429.836 251.636 429.79 251.522C429.743 251.408 429.72 251.286 429.721 251.162C429.722 251.039 429.747 250.917 429.796 250.804L431.745 246.127C431.79 246.013 431.857 245.91 431.944 245.824C432.03 245.738 432.133 245.67 432.246 245.625C432.472 245.533 432.726 245.533 432.951 245.625L454.52 254.591C454.634 254.638 454.738 254.706 454.825 254.794C454.912 254.881 454.981 254.984 455.028 255.098C455.074 255.212 455.098 255.335 455.097 255.458C455.096 255.581 455.07 255.703 455.022 255.816L453.073 260.456C452.977 260.682 452.797 260.862 452.571 260.958C452.458 260.996 452.338 261.009 452.219 260.995ZM431.801 250.6L451.662 258.86L452.887 255.872L433.137 247.612L431.801 250.6Z" fill="#191B1D"/>
<path d="M491.861 174.773L462.521 162.566L436.667 224.707L466.007 236.914L491.861 174.773Z" fill="#D1D3D4"/>
<path d="M465.975 237.866C465.852 237.892 465.726 237.892 465.604 237.866L436.276 225.653C436.162 225.608 436.06 225.54 435.973 225.454C435.887 225.368 435.82 225.265 435.775 225.151C435.682 224.926 435.682 224.672 435.775 224.446L461.631 162.301C461.727 162.075 461.907 161.896 462.132 161.8C462.365 161.708 462.624 161.708 462.856 161.8L492.184 174.014C492.41 174.108 492.589 174.288 492.683 174.514C492.777 174.74 492.778 174.994 492.685 175.22L466.829 237.365C466.746 237.519 466.623 237.648 466.472 237.736C466.322 237.825 466.149 237.87 465.975 237.866ZM437.854 224.223L465.474 235.732L490.681 175.294L463.061 163.805L437.854 224.223Z" fill="#191B1D"/>
<path d="M416.266 241.17L429.816 241.096L435.663 227.063L419.57 233.226L416.266 241.17Z" fill="white"/>
<path d="M416.264 242.098C416.111 242.099 415.96 242.061 415.824 241.99C415.688 241.919 415.572 241.816 415.484 241.69C415.411 241.556 415.373 241.406 415.373 241.254C415.373 241.101 415.411 240.951 415.484 240.818L418.788 232.873C418.833 232.755 418.903 232.647 418.992 232.557C419.082 232.468 419.19 232.398 419.308 232.353L435.401 226.191C435.572 226.128 435.758 226.115 435.935 226.155C436.113 226.194 436.276 226.284 436.404 226.414C436.531 226.543 436.617 226.708 436.65 226.886C436.683 227.065 436.662 227.25 436.589 227.416L430.742 241.449C430.678 241.618 430.564 241.764 430.415 241.867C430.265 241.97 430.088 242.025 429.907 242.024H416.338L416.264 242.098ZM420.273 233.95L417.656 240.242H429.202L433.972 228.771L420.273 233.95Z" fill="#191B1D"/>
<path d="M468.643 262.981L459.158 253.31L464.987 239.277L471.966 255.036L468.643 262.981Z" fill="white"/>
<path d="M468.665 263.909C468.414 263.908 468.174 263.808 467.996 263.63L458.493 253.959C458.366 253.829 458.28 253.666 458.244 253.488C458.207 253.311 458.223 253.126 458.289 252.957L464.136 238.906C464.21 238.741 464.33 238.601 464.481 238.503C464.632 238.404 464.809 238.351 464.989 238.349C465.169 238.347 465.344 238.396 465.496 238.492C465.647 238.587 465.768 238.725 465.843 238.887L472.804 254.665C472.855 254.779 472.881 254.902 472.881 255.027C472.881 255.151 472.855 255.275 472.804 255.389L469.5 263.333C469.439 263.475 469.345 263.6 469.226 263.697C469.106 263.794 468.964 263.86 468.813 263.89L468.665 263.909ZM460.238 253.031L468.331 261.254L470.948 254.962L465.027 241.542L460.238 253.031Z" fill="#191B1D"/>
<path d="M168.762 46.5496L346.176 51.8397L474.958 173.977L451.477 230.386L145.281 102.959L168.762 46.5496Z" fill="white"/>
<path d="M451.475 231.314C451.359 231.341 451.238 231.341 451.122 231.314L144.852 103.887C144.739 103.843 144.636 103.775 144.549 103.689C144.463 103.603 144.396 103.5 144.351 103.386C144.258 103.16 144.258 102.907 144.351 102.681L167.832 46.2715C167.908 46.1033 168.031 45.9601 168.185 45.8583C168.339 45.7566 168.519 45.7003 168.704 45.696L346.118 50.9862C346.345 50.9873 346.564 51.0734 346.73 51.2275L475.605 173.216C475.739 173.349 475.83 173.519 475.866 173.704C475.903 173.89 475.883 174.081 475.809 174.255L452.347 230.757C452.251 230.983 452.072 231.163 451.846 231.259C451.728 231.303 451.601 231.322 451.475 231.314ZM146.485 102.458L450.992 229.18L473.86 174.2L345.784 52.7495L169.446 47.4965L146.485 102.458Z" fill="#191B1D"/>
<path d="M374.81 57.2983L322.128 35.38C305.072 28.2839 285.494 36.3577 278.397 53.4135L250.932 119.428C243.836 136.484 251.909 156.063 268.965 163.159L321.647 185.077C338.702 192.173 358.281 184.099 365.377 167.044L392.843 101.029C399.939 83.9734 391.865 64.3944 374.81 57.2983Z" fill="#D1D3D4"/>
<path d="M334.483 188.622C329.946 188.616 325.455 187.714 321.267 185.967L268.57 164.046C260.152 160.545 253.468 153.845 249.988 145.419C246.507 136.992 246.515 127.529 250.008 119.108L277.48 53.0648C280.981 44.6468 287.681 37.9631 296.107 34.4826C304.533 31.002 313.997 31.0093 322.418 34.5029L375.115 56.443C383.533 59.9439 390.217 66.6438 393.697 75.0702C397.178 83.4966 397.17 92.9602 393.677 101.381L366.205 167.406C363.587 173.665 359.181 179.012 353.539 182.78C347.896 186.547 341.268 188.566 334.483 188.585V188.622ZM309.258 33.7419C305.003 33.752 300.792 34.5905 296.858 36.2106C292.904 37.8308 289.309 40.2183 286.283 43.2354C283.256 46.2525 280.857 49.8393 279.225 53.7887L251.753 119.813C248.443 127.774 248.429 136.723 251.715 144.694C255 152.665 261.317 159.004 269.275 162.32L321.991 184.353C329.961 187.645 338.913 187.637 346.877 184.33C354.841 181.023 361.166 174.688 364.461 166.719L391.932 100.694C395.252 92.7311 395.275 83.7756 391.996 75.7952C388.718 67.8148 382.406 61.462 374.447 58.1321L321.768 36.2663C317.808 34.5996 313.554 33.7413 309.258 33.7419Z" fill="#191B1D"/>
<path d="M150.348 128.946L121.002 116.732L160.279 22.2712C163.991 13.1759 180.567 -1.09815 186.265 1.25921C191.964 3.61656 193.449 25.3896 189.662 34.4849L150.348 128.946Z" fill="white"/>
<path d="M150.35 129.874C150.234 129.901 150.113 129.901 149.997 129.874L120.651 117.53C120.424 117.432 120.244 117.249 120.151 117.02C120.057 116.791 120.057 116.534 120.15 116.305L159.464 21.844C161.32 17.4448 166.22 11.4865 171.993 6.67896C175 4.19168 182.425 -1.41399 186.62 0.330821C190.815 2.07563 192.077 11.3009 192.429 15.1803C193.098 22.605 192.429 30.3639 190.573 34.763L151.259 129.224C151.196 129.415 151.074 129.581 150.911 129.698C150.747 129.814 150.551 129.876 150.35 129.874ZM122.229 116.231L149.849 127.739L188.828 34.1319C190.555 29.9741 191.26 22.6421 190.685 15.4216C190.109 8.20104 188.197 3.04085 186.007 2.11276C183.817 1.18466 178.824 3.57914 173.274 8.18247C167.724 12.7858 162.99 18.4843 161.264 22.6421L122.229 116.231Z" fill="#191B1D"/>
<path d="M146.819 127.469L125.26 118.5L123.306 123.195L144.865 132.165L146.819 127.469Z" fill="white"/>
<path d="M144.873 133.103C144.757 133.131 144.636 133.131 144.52 133.103L122.952 124.138C122.725 124.04 122.545 123.857 122.451 123.628C122.358 123.399 122.357 123.142 122.45 122.913L124.307 118.217C124.402 117.991 124.582 117.812 124.808 117.716C125.04 117.624 125.299 117.624 125.532 117.716L147.082 126.7C147.195 126.744 147.298 126.812 147.385 126.898C147.471 126.984 147.538 127.087 147.583 127.201C147.676 127.427 147.676 127.68 147.583 127.906L145.634 132.602C145.538 132.828 145.359 133.008 145.133 133.103C145.047 133.118 144.959 133.118 144.873 133.103ZM124.455 122.69L144.298 130.969L145.541 127.98L125.68 119.72L124.455 122.69Z" fill="#191B1D"/>
<path d="M184.514 46.8915L155.174 34.6846L129.32 96.8259L158.659 109.033L184.514 46.8915Z" fill="#D1D3D4"/>
<path d="M158.625 109.975C158.509 110.002 158.389 110.002 158.273 109.975L128.926 97.7618C128.813 97.717 128.71 97.6494 128.624 97.5632C128.537 97.477 128.47 97.374 128.425 97.2606C128.332 97.0347 128.332 96.7812 128.425 96.5553L154.3 34.4103C154.345 34.2969 154.413 34.1939 154.499 34.1077C154.585 34.0215 154.688 33.9539 154.801 33.9091C155.027 33.8163 155.281 33.8163 155.507 33.9091L184.834 46.1228C184.948 46.1675 185.051 46.2346 185.138 46.32C185.225 46.4054 185.294 46.5074 185.341 46.6199C185.387 46.7324 185.411 46.8532 185.41 46.9751C185.409 47.097 185.384 47.2174 185.336 47.3293L159.479 109.4C159.409 109.57 159.291 109.715 159.139 109.817C158.987 109.919 158.808 109.975 158.625 109.975ZM130.578 96.3325L158.198 107.822L183.35 47.4035L155.655 35.8581L130.578 96.3325Z" fill="#191B1D"/>
<path d="M108.918 113.28L122.487 113.206L128.315 99.1728L112.222 105.335L108.918 113.28Z" fill="white"/>
<path d="M108.918 114.208C108.766 114.207 108.616 114.169 108.482 114.097C108.348 114.025 108.234 113.921 108.15 113.795C108.066 113.668 108.014 113.523 107.999 113.372C107.984 113.22 108.006 113.068 108.064 112.927L111.368 104.983C111.417 104.863 111.49 104.756 111.582 104.666C111.675 104.577 111.785 104.507 111.906 104.463L127.981 98.3003C128.151 98.2371 128.337 98.2245 128.515 98.264C128.692 98.3035 128.855 98.3935 128.983 98.5231C129.11 98.6525 129.196 98.8171 129.229 98.9958C129.262 99.1744 129.241 99.3589 129.169 99.5254L123.34 113.558C123.271 113.728 123.152 113.873 123 113.975C122.848 114.078 122.67 114.133 122.486 114.134H108.936L108.918 114.208ZM112.927 106.059L110.31 112.352H121.855L126.626 100.825L112.927 106.059Z" fill="#191B1D"/>
<path d="M161.318 135.09L151.814 125.419L157.661 111.386L164.622 127.145L161.318 135.09Z" fill="white"/>
<path d="M161.316 136.092C161.067 136.084 160.829 135.985 160.648 135.813L151.144 126.143C151.017 126.013 150.931 125.849 150.898 125.67C150.865 125.491 150.886 125.307 150.959 125.14L156.806 111.089C156.873 110.923 156.989 110.781 157.138 110.682C157.287 110.583 157.462 110.53 157.641 110.532C157.818 110.531 157.99 110.582 158.139 110.677C158.287 110.773 158.404 110.909 158.476 111.071L165.474 126.811C165.567 127.05 165.567 127.315 165.474 127.553L162.133 135.442C162.074 135.585 161.98 135.71 161.86 135.808C161.74 135.905 161.598 135.971 161.446 135.999L161.316 136.092ZM152.852 125.196L160.945 133.438L163.562 127.145L157.678 113.818L152.852 125.196Z" fill="#191B1D"/>
<path d="M266.584 61.028L188.29 57.4641C188.168 57.4593 188.048 57.4305 187.938 57.3794C187.827 57.3283 187.727 57.2559 187.645 57.1662C187.562 57.0766 187.498 56.9715 187.455 56.857C187.413 56.7425 187.394 56.6208 187.399 56.4989C187.418 56.2527 187.531 56.0232 187.714 55.8575C187.897 55.6917 188.136 55.6024 188.383 55.6079L266.658 59.1718C266.904 59.1718 267.14 59.2696 267.314 59.4436C267.489 59.6177 267.586 59.8537 267.586 60.0999C267.586 60.346 267.489 60.5821 267.314 60.7561C267.14 60.9302 266.904 61.028 266.658 61.028H266.584Z" fill="#D1D3D4"/>
<path d="M464.562 176.408C464.327 176.403 464.102 176.31 463.931 176.148L397.331 114.3C397.151 114.131 397.046 113.896 397.039 113.649C397.032 113.402 397.124 113.162 397.294 112.982C397.464 112.803 397.698 112.698 397.945 112.691C398.192 112.684 398.432 112.776 398.612 112.945L465.193 174.793C465.28 174.88 465.349 174.982 465.396 175.095C465.443 175.208 465.468 175.33 465.468 175.452C465.468 175.575 465.443 175.696 465.396 175.809C465.349 175.922 465.28 176.025 465.193 176.111C465.027 176.285 464.802 176.391 464.562 176.408Z" fill="#D1D3D4"/>
<path d="M384.595 100.546C384.595 100.546 487.279 184.854 444.587 191.09C408.93 196.288 376.54 177.262 376.54 177.262L386.73 154.895C386.73 154.895 419.566 170.134 418.434 163.452C417.301 156.77 372.734 130.041 372.734 130.041L384.595 100.546Z" fill="#FFC200"/>
<path d="M293.144 66.5039C293.144 66.5039 189.811 55.1255 187.119 70.8845C184.428 86.6435 228.958 121.503 230.053 119.387C231.148 117.27 254.758 103.368 254.758 103.368L234.136 86.8291L283.548 97.9662L293.144 66.5039Z" fill="#FFC200"/>
<path d="M381.553 43.8956C384.523 38.3271 382.444 31.3478 379.085 26.002C374.789 19.3785 368.732 14.0828 361.595 10.7091C354.457 7.33537 346.521 6.01702 338.676 6.90192C331.492 7.83001 324.105 11.0412 320.392 17.278C324.303 16.4959 328.315 16.3517 332.272 16.8511C327.915 18.7564 324.01 21.56 320.811 25.0785C317.613 28.5969 315.193 32.751 313.71 37.2691C313.311 38.1778 313.258 39.2011 313.562 40.1461C314.304 41.7425 316.569 41.7981 318.258 41.3155C319.947 40.8329 321.84 40.0905 323.381 40.9443C318.34 42.9948 314.298 46.9304 312.114 51.9143C311.04 54.1011 310.733 56.5854 311.241 58.9678C311.76 60.6352 312.723 62.1301 314.026 63.2927C317.278 65.9541 321.082 67.8565 325.163 68.8613C332.402 71.2001 340.012 73.2976 347.437 72.3324C356.532 71.1815 364.031 65.7615 370.676 59.8031C373.739 57.056 376.709 56.9817 379.957 54.9399C380.903 54.3206 381.701 53.5007 382.295 52.5383C382.888 51.5759 383.263 50.4947 383.391 49.3714C382.973 47.4864 382.357 45.651 381.553 43.8956Z" fill="white"/>
<path d="M343.616 73.5386C337.212 73.2809 330.887 72.0285 324.868 69.8262C320.617 68.7633 316.658 66.7588 313.286 63.9607C311.869 62.6769 310.824 61.0356 310.26 59.2089C309.669 56.6191 309.99 53.9045 311.169 51.5243C312.898 47.5815 315.752 44.2367 319.374 41.9092H319.058L318.427 42.0949C316.367 42.6703 313.62 42.596 312.636 40.4243C312.216 39.2721 312.256 38.0025 312.747 36.879C315.478 28.6137 321.215 21.6768 328.822 17.4448C326.057 17.3635 323.291 17.6002 320.58 18.1501C320.403 18.1876 320.218 18.1723 320.05 18.1061C319.881 18.04 319.735 17.9258 319.63 17.7777C319.526 17.6296 319.467 17.4541 319.461 17.2729C319.455 17.0917 319.502 16.9127 319.597 16.758C323.031 10.9852 329.954 7.03158 338.567 5.93643C346.59 4.99323 354.716 6.32176 362.021 9.77074C369.326 13.2197 375.516 18.6506 379.885 25.4449C381.871 28.6375 386.085 36.7305 382.558 43.9139C383.347 45.6537 383.933 47.4786 384.303 49.3525C384.184 50.6323 383.777 51.8684 383.111 52.968C382.446 54.0675 381.539 55.0018 380.461 55.7007C379.181 56.485 377.825 57.138 376.414 57.6497C374.563 58.2501 372.847 59.2088 371.366 60.4711C365.481 65.7612 357.463 71.998 347.606 73.2416C346.284 73.4238 344.951 73.523 343.616 73.5386ZM321.768 39.5705C322.487 39.5549 323.197 39.7277 323.829 40.0716C323.984 40.1561 324.112 40.283 324.197 40.4375C324.283 40.5921 324.322 40.7678 324.311 40.944C324.302 41.1183 324.243 41.2861 324.141 41.4276C324.039 41.5692 323.898 41.6783 323.736 41.7422C318.915 43.6979 315.051 47.462 312.97 52.2296C311.966 54.2188 311.671 56.4911 312.135 58.6706C312.607 60.1749 313.479 61.5224 314.659 62.5686C317.817 65.1674 321.514 67.0315 325.481 68.0257C332.478 70.2717 339.959 72.4063 347.421 71.4597C356.702 70.2717 364.126 64.5732 370.159 59.1532C371.79 57.7414 373.682 56.663 375.728 55.9791C377.024 55.4863 378.268 54.8645 379.44 54.1229C380.273 53.5717 380.975 52.8435 381.495 51.99C382.015 51.1366 382.34 50.179 382.447 49.1855C382.011 47.5086 381.44 45.8698 380.739 44.2852C380.661 44.1497 380.62 43.9961 380.62 43.8397C380.62 43.6833 380.661 43.5296 380.739 43.3942C384.136 36.9904 380.164 29.38 378.308 26.4101C374.076 19.9728 368.148 14.8306 361.177 11.5516C354.206 8.27263 346.465 6.98457 338.808 7.82974C331.68 8.73927 325.815 11.672 322.418 15.9969C325.732 15.5606 329.09 15.5606 332.404 15.9969C332.606 16.0237 332.794 16.1165 332.939 16.2607C333.083 16.405 333.176 16.5928 333.202 16.7951C333.231 16.9975 333.192 17.2037 333.091 17.3815C332.99 17.5594 332.834 17.6991 332.646 17.7789C328.394 19.6097 324.579 22.3217 321.453 25.7357C318.327 29.1498 315.961 33.1882 314.511 37.5843C314.191 38.2695 314.126 39.0456 314.325 39.7746C314.789 40.7955 316.515 40.8327 317.926 40.4429L318.52 40.2572C319.563 39.8699 320.658 39.6385 321.768 39.5705Z" fill="#191B1D"/>
<path d="M320.301 206.126C320.301 206.126 353.861 280.373 348.144 294.889C342.426 309.404 286.073 382.315 286.073 382.315L256.17 356.978C256.17 356.978 308.867 287.538 306.695 282.731C304.523 277.923 278.444 227.62 278.444 227.62L136.687 382.203L122.395 345.08L237.292 180.195L320.301 206.126Z" fill="#191B1D"/>
<path d="M286.109 383.243C285.894 383.24 285.686 383.169 285.515 383.039L255.574 357.665C255.396 357.51 255.284 357.294 255.26 357.059C255.236 356.825 255.302 356.59 255.444 356.402C275.287 330.23 306.508 287.167 305.821 283.009C303.965 278.721 282.173 236.809 278.238 229.18L137.373 382.779C137.267 382.898 137.133 382.988 136.983 383.04C136.832 383.092 136.671 383.105 136.515 383.077C136.358 383.049 136.212 382.981 136.089 382.88C135.966 382.779 135.871 382.648 135.813 382.5L121.521 345.377C121.466 345.237 121.447 345.085 121.466 344.935C121.486 344.786 121.543 344.644 121.632 344.523L236.53 179.62C236.643 179.458 236.805 179.337 236.992 179.273C237.179 179.21 237.381 179.207 237.569 179.267L320.578 205.253C320.704 205.29 320.821 205.354 320.921 205.441C321.02 205.527 321.099 205.634 321.153 205.755C322.527 208.799 354.806 280.503 348.996 295.241C343.186 309.979 289.153 379.902 286.851 382.964C286.777 383.065 286.683 383.148 286.574 383.209C286.465 383.27 286.344 383.307 286.22 383.317L286.109 383.243ZM257.449 356.811L285.979 380.941C292.03 373.108 342.054 307.975 347.233 294.517C352.411 281.06 322.118 212.585 319.557 206.85L237.588 181.216L123.358 345.135L136.946 380.403L277.756 227.045C277.854 226.928 277.981 226.84 278.124 226.788C278.268 226.736 278.422 226.722 278.572 226.748C278.718 226.766 278.856 226.819 278.976 226.903C279.096 226.988 279.193 227.1 279.259 227.231C280.336 229.291 305.376 277.589 307.529 282.378C309.682 287.167 270.461 339.641 257.449 356.811Z" fill="#191B1D"/>
<path d="M320.301 206.126L237.293 180.139L315.16 78.5503C315.16 78.5503 353.935 97.1121 358.65 104.685C363.365 112.259 320.301 206.126 320.301 206.126Z" fill="white"/>
<path d="M320.302 207.054C320.21 207.071 320.116 207.071 320.024 207.054L237.015 181.067C236.871 181.023 236.74 180.944 236.633 180.837C236.526 180.73 236.447 180.599 236.403 180.455C236.358 180.314 236.348 180.164 236.373 180.019C236.399 179.873 236.46 179.736 236.551 179.619L314.344 77.9192C314.475 77.7488 314.661 77.6284 314.87 77.5778C315.079 77.5272 315.3 77.5494 315.494 77.6407C317.091 78.4018 354.474 96.5552 359.356 104.184C364.238 111.813 325.499 196.845 321.082 206.497C321.013 206.651 320.904 206.783 320.767 206.881C320.63 206.979 320.47 207.039 320.302 207.054ZM238.834 179.675L319.801 204.993C336.377 168.779 361.082 110.328 357.853 105.168C353.676 98.5228 320.618 82.1698 315.439 79.6454L238.834 179.675Z" fill="#191B1D"/>
<path d="M335.987 77.4737C334.465 77.4737 326.91 94.5877 326.13 96.0356C318.706 109.827 311.819 124.231 304.042 137.67C288.635 164.287 255.113 180.362 229.089 194.19C225.637 196.047 221.831 197.903 217.952 197.198C215.223 196.462 212.742 195.006 210.769 192.984C201.862 185.08 194.727 175.383 189.831 164.529C189.051 163.133 188.696 161.539 188.81 159.944C189.023 158.653 189.612 157.453 190.503 156.496C191.395 155.538 192.549 154.865 193.822 154.561C207.594 152.167 227.901 150.57 239.02 143.424C257.581 131.6 278.965 96.8708 293.109 66.4294C310.353 70.6615 325.351 75.0607 335.987 77.4737Z" fill="#FFC200"/>
<path d="M384.598 100.546C385.025 100.88 367.893 141.716 367.094 143.702C360.709 158.682 338.342 186.172 324.885 194.766C333.497 179.397 336.022 155.081 336.634 137.744C336.913 129.317 343.855 114.505 347.048 106.727C347.363 105.966 350.073 81.5946 349.72 81.3718C349.758 81.4089 373.74 91.8964 384.598 100.546Z" fill="#FFC200"/>
<path d="M355.178 83.5433L350.37 99.9149C350.37 99.9149 346.045 106.764 335.836 101.01C325.627 95.2558 326.147 87.2371 326.147 87.2371L336.208 57.0185C336.208 57.0185 344.43 54.3084 347.048 35.9879C347.048 35.9879 362.51 45.9927 379.401 48.5543C379.401 48.5543 373.944 68.5825 370.213 76.7126C366.482 84.8426 355.178 83.5433 355.178 83.5433Z" fill="white"/>
<path d="M343.356 104.221C340.532 104.12 337.782 103.289 335.374 101.808C324.794 95.8315 325.202 87.5158 325.221 87.1631V86.9404L335.282 56.7218C335.328 56.5857 335.406 56.4627 335.509 56.3626C335.613 56.2626 335.738 56.1885 335.876 56.1463C335.876 56.1463 343.597 53.2507 346.085 35.8397C346.108 35.686 346.171 35.5408 346.265 35.4174C346.36 35.294 346.484 35.1964 346.627 35.1335C346.769 35.0707 346.925 35.0446 347.08 35.0577C347.235 35.0709 347.384 35.1227 347.514 35.2086C347.662 35.3014 362.994 45.1392 379.477 47.645C379.606 47.6617 379.73 47.7071 379.839 47.7777C379.948 47.8484 380.04 47.9426 380.108 48.0534C380.183 48.1601 380.233 48.2819 380.256 48.4102C380.278 48.5385 380.272 48.6701 380.238 48.7959C380.016 49.6311 374.67 69.0097 370.957 77.1026C367.523 84.5274 358.484 84.6573 355.737 84.5274L351.152 100.175C351.134 100.257 351.096 100.334 351.041 100.398C350.153 101.597 348.993 102.568 347.658 103.233C346.322 103.897 344.848 104.236 343.356 104.221ZM327.077 87.4044C327.077 88.3697 327.281 95.1076 336.358 100.194C345.082 105.131 349.017 100.305 349.574 99.5068L354.345 83.2837C354.407 83.0767 354.539 82.8974 354.718 82.7758C354.897 82.6543 355.113 82.5977 355.328 82.6155C355.44 82.6155 366.02 83.7292 369.435 76.323C372.628 69.3995 377.138 53.4549 378.289 49.3156C364.461 46.9954 351.653 39.8305 347.755 37.5103C345.231 52.7866 338.753 56.8702 336.971 57.7055L327.077 87.4044Z" fill="#191B1D"/>
<path d="M341.645 57.6316C341.695 56.0178 341.227 54.4306 340.309 53.1025C339.383 51.9171 338.267 50.8946 337.005 50.0769C336.363 49.5605 335.615 49.1928 334.814 49.0003C334.242 48.9318 333.662 48.9759 333.107 49.1302C331.756 49.3709 330.537 50.089 329.673 51.1535C329.075 52.0851 328.718 53.15 328.633 54.2533C328.466 55.4354 328.466 56.6351 328.633 57.8172C328.784 59.0028 329.168 60.1466 329.765 61.1823C330.361 62.218 331.157 63.1248 332.107 63.8501C333.057 64.5755 334.142 65.1048 335.298 65.4075C336.454 65.7101 337.659 65.78 338.842 65.6131" fill="white"/>
<path d="M337.504 66.6338C335.078 66.6353 332.735 65.7519 330.913 64.1493C329.092 62.5467 327.918 60.3348 327.611 57.9283C327.476 56.6917 327.513 55.4423 327.722 54.216C327.823 52.9666 328.231 51.7615 328.91 50.7078C329.896 49.4238 331.314 48.5403 332.901 48.2205C333.578 48.0403 334.285 47.9962 334.98 48.0906C335.922 48.2951 336.805 48.7144 337.56 49.3157C338.906 50.1904 340.092 51.289 341.068 52.564C342.111 54.0497 342.639 55.8359 342.571 57.6499C342.557 57.8961 342.449 58.1276 342.27 58.2967C342.09 58.4658 341.853 58.5599 341.606 58.5594C341.362 58.5451 341.132 58.4365 340.966 58.2565C340.8 58.0765 340.71 57.8391 340.715 57.5942C340.764 56.1845 340.353 54.7971 339.546 53.6406C338.692 52.5388 337.656 51.591 336.483 50.8377C335.94 50.3994 335.306 50.0886 334.627 49.9282C334.173 49.8614 333.709 49.8995 333.272 50.0396C332.142 50.2303 331.116 50.8157 330.376 51.6916C329.894 52.5243 329.614 53.4591 329.56 54.4202C329.37 55.5173 329.333 56.6353 329.448 57.7427C329.588 58.8057 329.936 59.8306 330.473 60.7585C331.01 61.6864 331.725 62.499 332.577 63.1494C333.429 63.7998 334.402 64.2752 335.439 64.5483C336.475 64.8213 337.556 64.8867 338.618 64.7405C338.859 64.7086 339.102 64.7723 339.297 64.9181C339.491 65.0638 339.621 65.28 339.657 65.5201C339.69 65.7631 339.626 66.0091 339.481 66.2065C339.336 66.4038 339.119 66.537 338.878 66.5782C338.421 66.6238 337.963 66.6424 337.504 66.6338Z" fill="#191B1D"/>
<path d="M362.102 56.276C362.102 56.276 365.814 66.3551 363.958 67.5245C362.102 68.6939 358.594 66.7449 358.594 66.7449" fill="white"/>
<path d="M362.602 68.7313C361.074 68.63 359.586 68.1994 358.24 67.4691C358.134 67.4126 358.039 67.3354 357.962 67.242C357.886 67.1486 357.828 67.0409 357.794 66.9251C357.759 66.8093 357.748 66.6878 357.761 66.5677C357.774 66.4476 357.811 66.3312 357.869 66.2254C357.926 66.1164 358.004 66.0197 358.098 65.9409C358.192 65.8622 358.301 65.803 358.419 65.7667C358.536 65.7304 358.66 65.7179 358.782 65.7297C358.904 65.7415 359.023 65.7775 359.131 65.8356C360.152 66.3925 362.565 67.302 363.53 66.6709C363.995 65.947 362.955 61.1024 361.266 56.499C361.221 56.3858 361.2 56.2649 361.203 56.1433C361.206 56.0218 361.234 55.9021 361.284 55.7913C361.334 55.6806 361.406 55.581 361.496 55.4985C361.585 55.416 361.69 55.3523 361.804 55.3111C362.036 55.2275 362.291 55.2392 362.513 55.3436C362.736 55.448 362.908 55.6366 362.992 55.8679C364.848 60.7868 366.5 67.005 364.57 68.2115C363.978 68.5704 363.295 68.7508 362.602 68.7313Z" fill="#191B1D"/>
<path d="M355.179 83.5434C355.179 83.5434 346.734 80.8519 343.541 77.3066C343.541 77.3066 343.727 87.9983 352.117 93.3441L355.179 83.5434Z" fill="#191B1D"/>
<path d="M352.114 94.2724C351.937 94.2664 351.764 94.2153 351.613 94.1239C342.907 88.5554 342.61 77.7895 342.61 77.4183C342.602 77.2308 342.653 77.0455 342.757 76.8888C342.86 76.7322 343.01 76.6121 343.186 76.5459C343.362 76.4714 343.558 76.4547 343.744 76.498C343.931 76.5414 344.099 76.6426 344.225 76.7872C347.214 80.1097 355.362 82.727 355.455 82.7455C355.572 82.7812 355.681 82.8402 355.775 82.9189C355.869 82.9976 355.946 83.0945 356.001 83.2037C356.057 83.3129 356.089 83.4322 356.098 83.5544C356.106 83.6766 356.089 83.7992 356.049 83.9149L353.005 93.7155C352.96 93.8486 352.887 93.9704 352.791 94.0729C352.695 94.1753 352.578 94.256 352.448 94.3095C352.335 94.315 352.223 94.3025 352.114 94.2724ZM344.689 79.59C345.368 84.3975 347.825 88.7756 351.576 91.8594L354.007 84.1191C350.731 83.0158 347.612 81.4935 344.726 79.59H344.689Z" fill="#191B1D"/>
<path d="M351.67 49.4083C351.67 49.4083 356.106 46.2528 358.148 51.9327L351.67 49.4083Z" fill="white"/>
<path d="M358.15 52.8604C357.96 52.8578 357.775 52.7979 357.619 52.6886C357.463 52.5794 357.344 52.4258 357.277 52.2479C357.155 51.6719 356.902 51.1316 356.538 50.6683C356.175 50.205 355.71 49.8311 355.18 49.575C354.685 49.4784 354.176 49.4812 353.682 49.5831C353.188 49.6851 352.719 49.8842 352.303 50.169C352.203 50.2402 352.09 50.291 351.971 50.3183C351.851 50.3457 351.727 50.3491 351.607 50.3284C351.486 50.3077 351.37 50.2632 351.267 50.1977C351.163 50.1321 351.074 50.0466 351.003 49.9462C350.933 49.848 350.882 49.7366 350.855 49.6186C350.828 49.5005 350.825 49.3783 350.845 49.259C350.866 49.1397 350.911 49.0258 350.976 48.9239C351.041 48.8219 351.126 48.7341 351.226 48.6655C351.873 48.2076 352.609 47.8929 353.387 47.7424C354.165 47.592 354.966 47.6093 355.737 47.7931C356.564 48.1151 357.302 48.6301 357.89 49.2952C358.477 49.9604 358.897 50.7564 359.115 51.6168C359.166 51.7569 359.182 51.9072 359.162 52.0549C359.142 52.2026 359.087 52.3434 359.002 52.4653C358.916 52.5873 358.803 52.6869 358.671 52.7557C358.538 52.8244 358.392 52.8604 358.243 52.8604H358.15Z" fill="#191B1D"/>
<path d="M366.314 56.4803C366.314 56.4803 370.231 51.6542 372.737 57.3527L366.314 56.4803Z" fill="white"/>
<path d="M372.737 58.2811C372.556 58.2817 372.379 58.2293 372.227 58.1304C372.076 58.0314 371.956 57.8902 371.884 57.7242C371.475 56.7776 370.788 55.6453 369.842 55.5154C368.895 55.3854 367.429 56.5734 367.02 57.056C366.949 57.1642 366.855 57.2562 366.746 57.3261C366.637 57.3959 366.514 57.442 366.385 57.4615C366.257 57.4809 366.126 57.4732 366.001 57.4389C365.876 57.4045 365.759 57.3443 365.659 57.2621C365.558 57.18 365.476 57.0776 365.418 56.9617C365.359 56.8459 365.326 56.719 365.319 56.5894C365.313 56.4597 365.334 56.3302 365.381 56.2092C365.428 56.0881 365.499 55.9782 365.591 55.8866C366.11 55.2009 366.78 54.6447 367.55 54.2615C368.32 53.8782 369.168 53.6784 370.027 53.6777C371.475 53.8634 372.645 54.9771 373.536 56.9817C373.63 57.2086 373.632 57.4633 373.542 57.6919C373.452 57.9205 373.277 58.1052 373.053 58.2068C372.951 58.2445 372.845 58.2694 372.737 58.2811Z" fill="#191B1D"/>
<path d="M367.595 71.3858C367.595 71.3858 349.033 82.2631 349.033 62.9216L367.595 71.3858Z" fill="white"/>
<path d="M357.518 75.376C355.893 75.4132 354.286 75.0227 352.859 74.2437C349.704 72.3875 348.089 68.6752 348.07 62.9396C348.068 62.8161 348.09 62.6935 348.136 62.5787C348.181 62.4639 348.249 62.3594 348.336 62.2713C348.422 62.1831 348.525 62.1131 348.639 62.0653C348.753 62.0175 348.875 61.9929 348.999 61.9929C349.243 61.9977 349.477 62.097 349.65 62.27C349.823 62.443 349.922 62.6764 349.927 62.921C349.927 67.9327 351.245 71.1996 353.769 72.6288C358.725 75.4502 367.041 70.6427 367.134 70.587C367.348 70.464 367.602 70.431 367.84 70.4954C368.079 70.5598 368.282 70.7163 368.405 70.9304C368.528 71.1446 368.561 71.3989 368.497 71.6373C368.432 71.8758 368.276 72.0789 368.062 72.2019C364.839 74.0583 361.23 75.1446 357.518 75.376Z" fill="#191B1D"/>
<path d="M337.395 105.038L328.689 107.581L331.641 113.149C331.641 113.149 309.367 141.66 295.445 142.848C287.377 143.4 279.335 141.455 272.41 137.28L257.561 144.24C257.561 144.24 271.074 155.804 271.946 156.714C272.818 157.624 295.204 164.139 310.387 147.433C319.347 137.555 327.421 126.909 334.518 115.618L339.697 113.354L337.395 105.038Z" fill="#191B1D"/>
<path d="M300.122 136.092C299.9 136.09 299.686 136.008 299.519 135.862C299.352 135.716 299.244 135.514 299.213 135.294L295.129 107.786C295.101 107.571 295.149 107.354 295.264 107.171C295.379 106.988 295.555 106.851 295.76 106.783L309.663 102.254L299.955 93.4003C299.837 93.2913 299.75 93.1537 299.701 93.0008C299.652 92.8479 299.644 92.6849 299.677 92.5279C299.712 92.3707 299.787 92.2252 299.894 92.105C300.001 91.9849 300.137 91.894 300.289 91.8411L321.171 84.6205C321.405 84.5393 321.662 84.5543 321.884 84.6622C322.107 84.7701 322.278 84.9621 322.359 85.196C322.44 85.4298 322.425 85.6863 322.317 85.9091C322.21 86.1319 322.018 86.3027 321.784 86.3839L302.368 93.0847L312.076 101.994C312.197 102.105 312.286 102.246 312.335 102.402C312.384 102.559 312.391 102.726 312.354 102.885C312.323 103.044 312.249 103.191 312.141 103.312C312.034 103.433 311.896 103.523 311.742 103.572L297.097 108.343L301.05 135.072C301.082 135.312 301.018 135.556 300.873 135.75C300.727 135.945 300.511 136.074 300.271 136.111L300.122 136.092Z" fill="#191B1D"/>
<path d="M249.58 165.958H249.376C249.19 165.958 230.108 162.097 219.77 159.74C219.651 159.716 219.538 159.668 219.437 159.599C219.337 159.531 219.252 159.443 219.186 159.341C219.12 159.239 219.076 159.125 219.055 159.005C219.034 158.886 219.037 158.763 219.064 158.645C219.09 158.525 219.14 158.412 219.211 158.311C219.281 158.211 219.37 158.125 219.474 158.06C219.578 157.994 219.693 157.95 219.814 157.929C219.935 157.909 220.058 157.912 220.178 157.939C230.498 160.278 249.543 164.102 249.747 164.139C249.866 164.163 249.98 164.211 250.081 164.279C250.182 164.347 250.268 164.435 250.336 164.537C250.403 164.638 250.449 164.752 250.473 164.872C250.496 164.992 250.495 165.115 250.471 165.234C250.422 165.436 250.308 165.616 250.148 165.747C249.987 165.877 249.787 165.952 249.58 165.958Z" fill="#191B1D"/>
<path d="M345.507 138.264C345.319 138.265 345.135 138.21 344.98 138.104C344.824 137.999 344.704 137.849 344.636 137.674C344.568 137.499 344.554 137.307 344.597 137.124C344.64 136.941 344.737 136.775 344.876 136.649L365.777 117.53L356.496 109.307C356.386 109.212 356.302 109.09 356.25 108.954C356.199 108.819 356.181 108.672 356.199 108.528C356.209 108.38 356.254 108.237 356.332 108.111C356.409 107.984 356.517 107.879 356.644 107.804L369.73 100.268L361.192 93.3999C361.001 93.2468 360.878 93.0242 360.85 92.7808C360.822 92.5374 360.892 92.2929 361.044 92.1006C361.205 91.9149 361.432 91.7981 361.677 91.7739C361.922 91.7498 362.167 91.8202 362.361 91.9706L371.884 99.748C371.998 99.8459 372.087 99.969 372.145 100.108C372.203 100.246 372.228 100.396 372.218 100.546C372.204 100.695 372.155 100.839 372.075 100.965C371.994 101.091 371.884 101.196 371.754 101.27L358.63 108.843L367.763 116.899C367.87 116.972 367.961 117.065 368.031 117.173C368.101 117.282 368.149 117.403 368.171 117.53C368.172 117.661 368.144 117.79 368.09 117.909C368.035 118.027 367.955 118.133 367.856 118.217L346.12 137.948C345.962 138.127 345.744 138.239 345.507 138.264Z" fill="#191B1D"/>
<path d="M295.778 190.144C295.623 190.145 295.47 190.107 295.333 190.033C295.119 189.912 294.961 189.712 294.892 189.477C294.823 189.241 294.848 188.988 294.961 188.771C295.166 188.399 315.472 151.647 325.477 131.804C325.526 131.687 325.599 131.58 325.691 131.492C325.783 131.403 325.892 131.335 326.012 131.291C326.132 131.246 326.259 131.227 326.387 131.235C326.514 131.242 326.639 131.275 326.753 131.333C326.867 131.391 326.967 131.471 327.049 131.569C327.13 131.668 327.19 131.782 327.226 131.904C327.261 132.027 327.271 132.156 327.254 132.282C327.237 132.409 327.195 132.53 327.129 132.64C317.124 152.538 296.799 189.29 296.595 189.662C296.516 189.809 296.399 189.933 296.254 190.018C296.11 190.103 295.946 190.147 295.778 190.144Z" fill="#D1D3D4"/>
<path d="M122.395 345.042L105.912 365.46C105.912 365.46 117.42 419.29 124.697 413.331C131.973 407.373 136.688 382.222 136.688 382.222L122.395 345.042Z" fill="white"/>
<path d="M123.509 414.687C123.199 414.683 122.891 414.627 122.6 414.52C115.175 411.921 106.006 370.324 105.003 365.591C104.974 365.455 104.976 365.315 105.008 365.18C105.04 365.045 105.102 364.919 105.189 364.811L121.672 344.393C121.771 344.265 121.902 344.167 122.052 344.108C122.203 344.049 122.366 344.032 122.526 344.059C122.686 344.083 122.837 344.149 122.964 344.25C123.091 344.351 123.19 344.483 123.25 344.634L137.561 381.758C137.608 381.922 137.608 382.095 137.561 382.259C137.375 383.299 132.698 407.744 125.254 413.926C124.783 414.38 124.164 414.651 123.509 414.687ZM106.804 365.646C110.516 383.169 118.256 411.086 123.12 412.775C123.272 412.831 123.437 412.842 123.596 412.805C123.754 412.769 123.898 412.688 124.011 412.571C130.563 407.132 135.148 384.895 135.63 382.241L122.006 346.88L106.804 365.646Z" fill="#191B1D"/>
<path d="M303.483 62.4387C303.483 62.4387 289.413 110.105 276.512 122.746C263.612 135.387 235.676 150.793 239.055 143.498C242.433 136.203 258.693 130.226 270.127 109.289C281.561 88.351 289.023 59.1718 289.023 59.1718C289.023 59.1718 288.002 54.0116 295.594 55.7378C303.186 57.4641 303.483 62.4387 303.483 62.4387Z" fill="#191B1D"/>
<path d="M348.977 171.23C358.058 162.276 365.888 152.136 372.253 141.085C380.365 126.867 386.564 107.154 388.792 99.5625C389.05 98.6728 388.985 97.7203 388.608 96.8741C388.231 96.0279 387.566 95.3428 386.731 94.9406L384.188 93.6598C383.668 93.397 383.096 93.253 382.513 93.2383C381.931 93.2236 381.352 93.3385 380.819 93.5748C380.286 93.811 379.813 94.1626 379.432 94.6043C379.052 95.0459 378.774 95.5665 378.62 96.1285C375.093 109.01 364.16 145.856 348.977 171.23Z" fill="#191B1D"/>
<path d="M247.647 105.317C248.928 106.764 261.216 114.598 261.216 114.598C261.216 114.598 266.599 107.061 271.963 105.911L268.604 111.962L285.643 112.203C285.643 112.203 285.643 128.315 270.664 131.619C255.685 134.923 230.051 119.387 230.051 119.387" fill="white"/>
<path d="M266.083 132.992C250.899 132.992 230.537 120.686 229.59 120.11C229.483 120.049 229.389 119.967 229.315 119.869C229.24 119.77 229.187 119.658 229.157 119.538C229.128 119.418 229.123 119.293 229.143 119.172C229.163 119.05 229.208 118.934 229.274 118.83C229.339 118.726 229.423 118.636 229.523 118.565C229.622 118.494 229.734 118.443 229.853 118.415C229.972 118.388 230.095 118.384 230.216 118.404C230.336 118.424 230.452 118.468 230.555 118.533C230.797 118.681 255.966 133.865 270.482 130.691C282.77 127.999 284.477 116.472 284.7 113.094L268.607 112.871C268.448 112.869 268.292 112.825 268.155 112.743C268.018 112.662 267.905 112.546 267.827 112.407C267.749 112.265 267.709 112.105 267.709 111.943C267.709 111.781 267.749 111.621 267.827 111.479L269.962 107.767C266.869 109.725 264.168 112.243 261.999 115.191C261.934 115.289 261.849 115.374 261.751 115.439C261.653 115.504 261.543 115.549 261.428 115.572C261.312 115.594 261.193 115.593 261.078 115.57C260.962 115.546 260.853 115.499 260.755 115.433C259.475 114.616 248.319 107.47 246.982 105.966C246.902 105.876 246.84 105.77 246.801 105.655C246.762 105.54 246.746 105.418 246.755 105.297C246.764 105.176 246.796 105.058 246.851 104.95C246.906 104.841 246.983 104.745 247.075 104.667C247.159 104.578 247.259 104.507 247.371 104.459C247.483 104.411 247.603 104.386 247.725 104.386C247.847 104.386 247.967 104.411 248.079 104.459C248.191 104.507 248.291 104.578 248.375 104.667C249.21 105.595 256.282 110.235 261.015 113.335C262.556 111.368 267.103 105.911 271.818 104.982C271.992 104.947 272.173 104.963 272.338 105.029C272.503 105.095 272.645 105.208 272.746 105.354C272.842 105.503 272.893 105.677 272.893 105.855C272.893 106.033 272.842 106.207 272.746 106.356L270.148 110.997L285.628 111.219C285.869 111.219 286.101 111.315 286.271 111.486C286.442 111.656 286.538 111.888 286.538 112.129C286.538 112.314 286.538 129.057 270.834 132.547C269.271 132.864 267.678 133.013 266.083 132.992Z" fill="#191B1D"/>
<path d="M386.011 157.809L374.874 151.034L372.238 141.085L367.078 146.951C367.078 146.951 359.653 140.825 354.975 143.053C351.263 144.909 349.407 154.413 353.119 159.202C356.832 163.99 378.233 175.332 378.233 175.332" fill="white"/>
<path d="M378.214 176.26C378.064 176.261 377.917 176.222 377.787 176.148C376.896 175.684 356.07 164.677 352.376 159.758C349.833 156.417 349.87 151.424 350.687 148.176C350.87 146.961 351.314 145.8 351.986 144.772C352.659 143.744 353.545 142.872 354.585 142.217C358.965 140.175 364.924 144.073 366.984 145.67L371.569 140.472C371.679 140.345 371.822 140.251 371.983 140.199C372.143 140.147 372.314 140.14 372.478 140.178C372.642 140.217 372.793 140.299 372.914 140.416C373.035 140.533 373.122 140.681 373.165 140.844L375.689 150.44L386.492 157.011C386.596 157.075 386.686 157.16 386.757 157.259C386.828 157.358 386.879 157.471 386.907 157.59C386.934 157.709 386.938 157.832 386.918 157.952C386.898 158.073 386.854 158.188 386.789 158.292C386.728 158.396 386.647 158.488 386.55 158.56C386.453 158.633 386.342 158.686 386.225 158.715C386.107 158.745 385.985 158.75 385.865 158.732C385.745 158.713 385.63 158.671 385.527 158.607L374.39 151.832C374.288 151.771 374.2 151.691 374.13 151.595C374.06 151.499 374.009 151.391 373.982 151.275L371.884 142.997L367.875 147.563C367.699 147.729 367.467 147.821 367.225 147.821C366.984 147.821 366.751 147.729 366.576 147.563C364.719 145.967 358.909 142.18 355.438 143.851C354.659 144.4 353.999 145.104 353.501 145.918C353.003 146.732 352.677 147.639 352.543 148.584C352.071 150.258 351.948 152.012 352.181 153.736C352.414 155.46 352.998 157.118 353.898 158.607C357.369 163.192 378.492 174.366 378.715 174.478C378.822 174.534 378.916 174.611 378.993 174.705C379.07 174.798 379.127 174.906 379.161 175.022C379.196 175.137 379.207 175.259 379.194 175.379C379.181 175.499 379.145 175.616 379.086 175.721C379.012 175.888 378.889 176.029 378.733 176.125C378.577 176.221 378.396 176.268 378.214 176.26Z" fill="#191B1D"/>
<path d="M0.962256 318.406C0.780535 318.41 0.601116 318.365 0.442527 318.276C0.229158 318.136 0.0788598 317.918 0.0234304 317.668C-0.0319989 317.419 0.0117904 317.158 0.145538 316.94L115.73 134.236C115.871 134.023 116.089 133.872 116.338 133.817C116.588 133.761 116.849 133.805 117.066 133.939C117.279 134.076 117.428 134.291 117.484 134.537C117.54 134.784 117.496 135.042 117.363 135.257L1.76042 317.998C1.67398 318.129 1.55503 318.236 1.41515 318.307C1.27527 318.379 1.11924 318.413 0.962256 318.406Z" fill="#D1D3D4"/>
<path d="M75.6561 307.455C75.5463 307.481 75.4318 307.481 75.322 307.455C75.2046 307.412 75.0969 307.346 75.0053 307.26C74.9136 307.175 74.8398 307.073 74.788 306.959C74.7362 306.845 74.7075 306.722 74.7036 306.597C74.6997 306.472 74.7206 306.347 74.7651 306.23L137.17 143.517C137.213 143.4 137.279 143.292 137.365 143.2C137.45 143.109 137.552 143.035 137.666 142.983C137.78 142.931 137.903 142.903 138.028 142.899C138.153 142.895 138.278 142.916 138.395 142.96C138.634 143.052 138.826 143.234 138.93 143.467C139.035 143.7 139.043 143.965 138.952 144.204L76.5656 306.861C76.4891 307.038 76.362 307.189 76.2003 307.295C76.0385 307.401 75.8493 307.456 75.6561 307.455Z" fill="#D1D3D4"/>
<path d="M323.734 433.545C323.562 433.541 323.395 433.49 323.251 433.397C323.033 433.266 322.875 433.053 322.813 432.807C322.75 432.56 322.788 432.298 322.917 432.079L424.432 264.651C424.495 264.541 424.58 264.445 424.681 264.368C424.782 264.292 424.897 264.236 425.02 264.205C425.143 264.174 425.271 264.168 425.396 264.187C425.522 264.206 425.642 264.25 425.75 264.317C425.965 264.451 426.119 264.665 426.178 264.911C426.237 265.158 426.196 265.418 426.065 265.635L324.569 433.081C324.481 433.223 324.358 433.34 324.212 433.421C324.066 433.503 323.901 433.545 323.734 433.545Z" fill="#D1D3D4"/>
<path d="M399.726 427.309H399.447C399.207 427.228 399.007 427.057 398.889 426.832C398.772 426.607 398.746 426.346 398.816 426.102C403.661 410.269 446.112 271.371 446.854 269.849C446.963 269.622 447.156 269.448 447.393 269.365C447.63 269.281 447.89 269.295 448.117 269.403C448.343 269.512 448.518 269.704 448.605 269.94C448.691 270.176 448.683 270.436 448.581 270.665C447.652 273.023 416.84 373.702 400.635 426.585C400.589 426.791 400.473 426.975 400.308 427.107C400.143 427.238 399.937 427.31 399.726 427.309Z" fill="#D1D3D4"/>
<path d="M376.152 418.659C376.036 418.685 375.916 418.685 375.8 418.659C375.567 418.56 375.382 418.376 375.282 418.144C375.182 417.913 375.174 417.652 375.261 417.415L411.123 328.318C411.222 328.086 411.406 327.901 411.637 327.801C411.868 327.7 412.13 327.693 412.366 327.78C412.485 327.827 412.593 327.897 412.685 327.986C412.776 328.075 412.849 328.181 412.899 328.299C412.949 328.416 412.975 328.542 412.976 328.67C412.977 328.797 412.953 328.924 412.905 329.042L377.043 418.139C376.963 418.304 376.835 418.441 376.677 418.534C376.518 418.626 376.335 418.67 376.152 418.659Z" fill="#D1D3D4"/>
<path d="M53.7146 276.939C53.5508 276.94 53.39 276.895 53.2506 276.809C53.14 276.749 53.0426 276.667 52.9639 276.569C52.8852 276.471 52.8269 276.358 52.7923 276.237C52.7577 276.116 52.7476 275.99 52.7626 275.865C52.7775 275.74 52.8172 275.619 52.8794 275.51L97.2792 195.972C97.3411 195.861 97.4244 195.763 97.5242 195.684C97.624 195.605 97.7385 195.547 97.861 195.512C97.9835 195.478 98.1116 195.468 98.2379 195.483C98.3642 195.498 98.4863 195.538 98.5971 195.601C98.8181 195.729 98.9803 195.939 99.0496 196.185C99.1189 196.431 99.0898 196.694 98.9684 196.919L54.4757 276.456C54.3977 276.593 54.2875 276.708 54.1549 276.792C54.0223 276.876 53.8712 276.926 53.7146 276.939Z" fill="#D1D3D4"/>
<path d="M45.3823 336.894C45.2662 336.92 45.1457 336.92 45.0296 336.894C44.911 336.847 44.803 336.777 44.7122 336.687C44.6214 336.598 44.5495 336.491 44.501 336.373C44.4525 336.255 44.4282 336.129 44.4298 336.001C44.4313 335.874 44.4585 335.748 44.5099 335.631L56.111 307.789C56.2133 307.556 56.4019 307.371 56.6373 307.274C56.8727 307.177 57.1365 307.175 57.3732 307.269C57.603 307.375 57.7832 307.565 57.8765 307.8C57.9699 308.035 57.9691 308.297 57.8744 308.531L46.2733 336.374C46.1909 336.537 46.0629 336.674 45.9048 336.766C45.7466 336.858 45.5652 336.902 45.3823 336.894Z" fill="#D1D3D4"/>
<path d="M344.037 434.51C343.873 434.514 343.711 434.469 343.573 434.381C343.462 434.32 343.365 434.239 343.286 434.141C343.207 434.043 343.149 433.93 343.115 433.809C343.08 433.688 343.07 433.561 343.085 433.436C343.1 433.311 343.139 433.191 343.202 433.081L362.302 398.445C362.425 398.223 362.631 398.06 362.875 397.99C363.118 397.921 363.38 397.951 363.601 398.074C363.823 398.197 363.986 398.403 364.056 398.646C364.125 398.89 364.095 399.151 363.972 399.373L344.854 434.009C344.774 434.158 344.657 434.283 344.513 434.371C344.37 434.459 344.205 434.507 344.037 434.51Z" fill="#D1D3D4"/>
</svg>
